<?xml version="1.0" encoding="utf-8"?>
<!-- Generator: Adobe Illustrator 28.4.1, SVG Export Plug-In . SVG Version: 6.00 Build 0)  -->
<svg version="1.1" id="Layer_1" xmlns="http://www.w3.org/2000/svg" xmlns:xlink="http://www.w3.org/1999/xlink" x="0px" y="0px"
	 viewBox="0 0 294.8 60" style="enable-background:new 0 0 294.8 60;" xml:space="preserve">
<style type="text/css">
	.st0{fill:#FFFFFF;}
	.st1{display:none;}
	.st2{display:inline;}
	.st3{display:inline;clip-path:url(#SVGID_00000047773925595678489220000016088479789353949592_);}
	.st4{fill-rule:evenodd;clip-rule:evenodd;fill:#FFFFFF;}
	.st5{fill-rule:evenodd;clip-rule:evenodd;fill:#F5F5F6;}
	.st6{fill-rule:evenodd;clip-rule:evenodd;fill:#EA2849;}
	.st7{fill-rule:evenodd;clip-rule:evenodd;fill:#EA2D4E;}
	.st8{fill:none;stroke:#FFFFFF;stroke-width:1.85;}
	.st9{fill-rule:evenodd;clip-rule:evenodd;fill:#0D623E;}
	.st10{fill-rule:evenodd;clip-rule:evenodd;fill:#10623E;}
	.st11{fill:#E91E44;}
	.st12{fill-rule:evenodd;clip-rule:evenodd;fill:#E91E44;}
	.st13{fill:#0D623E;}
	.st14{fill-rule:evenodd;clip-rule:evenodd;fill:#006B3A;}
	.st15{fill-rule:evenodd;clip-rule:evenodd;fill:#E8262D;}
	.st16{fill:none;stroke:#E8262D;stroke-width:0.96;stroke-linecap:round;stroke-linejoin:round;}
	.st17{fill:none;stroke:#FFFFFF;stroke-width:4.37;stroke-linejoin:round;}
	.st18{fill-rule:evenodd;clip-rule:evenodd;fill:#0C6D39;}
	.st19{fill:#EE5324;}
	.st20{fill:#F1F1F2;}
	.st21{fill:#00613D;}
</style>
<path class="st0" d="M0,0h294.8l-33.2,46.6c-6,8.4-15.7,13.4-26.1,13.4H59.2c-10.3,0-20.1-5-26.1-13.4L0,0z"/>
<g class="st1">
	<defs>
		<rect id="SVGID_1_" x="58.5" y="8" width="180" height="44"/>
	</defs>
	<clipPath id="SVGID_00000114788839449090475480000018333098576056830895_" class="st2">
		<use xlink:href="#SVGID_1_"  style="overflow:visible;"/>
	</clipPath>
	<g style="display:inline;clip-path:url(#SVGID_00000114788839449090475480000018333098576056830895_);">
		<path class="st4" d="M58.7,43.7h36.8V12.5H58.7V43.7z"/>
		<path class="st5" d="M97.3,9.2c0.7,0,1.3,0.6,1.3,1.3c0,0,0,0,0,0l0,0c0,0.7-0.6,1.3-1.3,1.3l0,0c-0.7-0.1-1.3-0.7-1.2-1.4
			C96.1,9.7,96.6,9.2,97.3,9.2L97.3,9.2z"/>
		<path class="st6" d="M97.7,10.1c0,0.1-0.1,0.2-0.3,0.3H97c-0.1,0-0.1-0.1-0.1-0.1c0,0,0,0,0,0l0,0V9.9c0-0.1,0.1-0.1,0.1-0.1l0,0
			h0.4C97.5,9.8,97.7,9.9,97.7,10.1C97.7,10.1,97.7,10.1,97.7,10.1z M97.9,11.3c0-0.1,0-0.3-0.1-0.4c0-0.1-0.1-0.2-0.2-0.3v-0.1
			c0.1-0.1,0.2-0.3,0.2-0.5c0-0.1-0.1-0.2-0.2-0.3c-0.1-0.1-0.2-0.1-0.3-0.1h-0.7c-0.1,0-0.1,0.1-0.1,0.1v1.6l0,0
			c0,0,0.1,0.1,0.1,0.1c0,0,0.1,0,0.1-0.1v-0.5c0-0.2,0-0.2,0.2-0.2h0.3c0.2,0,0.3,0.1,0.3,0.3v0l0,0v0.4c0.1,0,0.1,0,0.2,0
			C97.8,11.3,97.9,11.3,97.9,11.3z"/>
		<path class="st7" d="M97.3,11.7c-0.7,0-1.2-0.5-1.2-1.2c0-0.7,0.5-1.2,1.2-1.2c0.7,0,1.2,0.5,1.2,1.2l0,0
			C98.5,11.2,97.9,11.7,97.3,11.7C97.3,11.7,97.3,11.7,97.3,11.7z M97.3,9c-0.8,0-1.5,0.7-1.5,1.5c0,0.8,0.7,1.5,1.5,1.5
			c0.8,0,1.5-0.7,1.5-1.5l0,0C98.8,9.7,98.1,9,97.3,9C97.3,9,97.3,9,97.3,9z"/>
		<path class="st4" d="M64,50.3h-0.6c-0.1,0-0.1,0-0.1-0.1v-0.4c0,0,0-0.1,0-0.1c0.1-0.3,0.1-0.6,0.1-0.8c0,0,0-0.1-0.1-0.1h-0.2
			c0,0-0.1,0.1-0.1,0.1c0,0.3,0,0.5,0.1,0.8c0,0.2,0,0.4,0,0.6c0,0,0,0.1-0.1,0.1h-1.2c-0.1,0-0.1-0.1-0.1-0.1v-0.3
			c0-0.1,0-0.2,0.1-0.3c0.1-0.1,0.1-0.2,0.1-0.3v-1.6c0-0.1,0-0.2,0-0.2c-0.1-0.2-0.1-0.3-0.1-0.5v-0.2c0-0.1,0.1-0.1,0.1-0.1
			c0,0,0,0,0,0H63c0.1,0,0.1,0.1,0.1,0.1c0,0,0,0,0,0c0,0.2,0,0.5-0.1,0.7c0,0.2,0,0.3,0,0.5c0,0,0,0.1,0.1,0.1c0.1,0,0.2,0,0.2,0
			h0.1c0-0.2,0-0.4,0-0.6c-0.1-0.1-0.1-0.3-0.1-0.4v-0.2c0-0.1,0-0.1,0.1-0.1h1.2c0.1,0,0.1,0.1,0.1,0.1V47c0,0.1,0,0.2-0.1,0.3
			c0,0.1-0.1,0.2-0.1,0.3v1.6c0,0.1,0,0.3,0.1,0.4c0,0.1,0,0.1,0,0.2v0.3c0,0.1,0,0.1-0.1,0.2c0,0,0,0,0,0L64,50.3L64,50.3z"/>
		<path class="st8" d="M64,50.3h-0.6c-0.1,0-0.1,0-0.1-0.1v-0.4c0,0,0-0.1,0-0.1c0.1-0.3,0.1-0.6,0.1-0.8c0,0,0-0.1-0.1-0.1h-0.2
			c0,0-0.1,0.1-0.1,0.1c0,0.3,0,0.5,0.1,0.8c0,0.2,0,0.4,0,0.6c0,0,0,0.1-0.1,0.1h-1.2c-0.1,0-0.1-0.1-0.1-0.1v-0.3
			c0-0.1,0-0.2,0.1-0.3c0.1-0.1,0.1-0.2,0.1-0.3v-1.6c0-0.1,0-0.2,0-0.2c-0.1-0.2-0.1-0.3-0.1-0.5v-0.2c0-0.1,0.1-0.1,0.1-0.1
			c0,0,0,0,0,0H63c0.1,0,0.1,0.1,0.1,0.1c0,0,0,0,0,0c0,0.2,0,0.5-0.1,0.7c0,0.2,0,0.3,0,0.5c0,0,0,0.1,0.1,0.1c0.1,0,0.2,0,0.2,0
			h0.1c0-0.2,0-0.4,0-0.6c-0.1-0.1-0.1-0.3-0.1-0.4v-0.2c0-0.1,0-0.1,0.1-0.1h1.2c0.1,0,0.1,0.1,0.1,0.1V47c0,0.1,0,0.2-0.1,0.3
			c0,0.1-0.1,0.2-0.1,0.3v1.6c0,0.1,0,0.3,0.1,0.4c0,0.1,0,0.1,0,0.2v0.3c0,0.1,0,0.1-0.1,0.2c0,0,0,0,0,0L64,50.3L64,50.3z"/>
		<path class="st4" d="M66.8,48.4v-0.8c0-0.1,0-0.2-0.1-0.3c0,0,0,0,0-0.1c0-0.2,0-0.4,0-0.6h1.1c0,0,0,0,0-0.1l-0.2-0.1
			c-0.2-0.1-0.2-0.3-0.1-0.5c0-0.1,0.1-0.1,0.2-0.2c0.2-0.1,0.5,0,0.7,0.2c0,0,0,0,0,0c0,0,0,0.1,0,0.1c0,0.2,0,0.4-0.1,0.5
			c-0.1,0.1-0.2,0.3-0.3,0.4c-0.1,0.1-0.1,0.1-0.1,0.2v2c0,0.1,0,0.3,0,0.4c-0.1,0.4-0.4,0.6-0.7,0.7c-0.4,0.1-0.8,0.1-1.2,0
			c-0.3-0.1-0.5-0.3-0.7-0.5c0-0.1-0.1-0.2-0.1-0.3v-1.9c0-0.1,0-0.3-0.1-0.4c0,0,0-0.1,0-0.1v-0.5h1.3c0.1,0,0.2,0,0.2,0.2v0.3
			c0,0.1,0,0.2-0.1,0.2c-0.1,0.1-0.1,0.2-0.1,0.3v1.8c0,0.1,0.1,0.2,0.2,0.2c0,0,0,0,0,0l0,0c0.1,0,0.1,0,0.1-0.1l0,0
			c0-0.1,0-0.2,0-0.3L66.8,48.4L66.8,48.4z"/>
		<path class="st8" d="M66.8,48.4v-0.8c0-0.1,0-0.2-0.1-0.3c0,0,0,0,0-0.1c0-0.2,0-0.4,0-0.6h1.1c0,0,0,0,0-0.1l-0.2-0.1
			c-0.2-0.1-0.2-0.3-0.1-0.5c0-0.1,0.1-0.1,0.2-0.2c0.2-0.1,0.5,0,0.7,0.2c0,0,0,0,0,0c0,0,0,0.1,0,0.1c0,0.2,0,0.4-0.1,0.5
			c-0.1,0.1-0.2,0.3-0.3,0.4c-0.1,0.1-0.1,0.1-0.1,0.2v2c0,0.1,0,0.3,0,0.4c-0.1,0.4-0.4,0.6-0.7,0.7c-0.4,0.1-0.8,0.1-1.2,0
			c-0.3-0.1-0.5-0.3-0.7-0.5c0-0.1-0.1-0.2-0.1-0.3v-1.9c0-0.1,0-0.3-0.1-0.4c0,0,0-0.1,0-0.1v-0.5h1.3c0.1,0,0.2,0,0.2,0.2v0.3
			c0,0.1,0,0.2-0.1,0.2c-0.1,0.1-0.1,0.2-0.1,0.3v1.8c0,0.1,0.1,0.2,0.2,0.2c0,0,0,0,0,0l0,0c0.1,0,0.1,0,0.1-0.1l0,0
			c0-0.1,0-0.2,0-0.3L66.8,48.4L66.8,48.4z"/>
		<path class="st4" d="M90.3,46.6c0.8,0,0.5-0.1,0.8,0.5c0.1,0.3,0.2,0.5,0.3,0.8l0,0v-0.1c0-0.1,0-0.3,0-0.4c0-0.1,0-0.2,0-0.2
			c0-0.2,0-0.4,0-0.6h1c0.1,0,0.1,0,0.1,0.1v0.4c0,0.1,0,0.1,0,0.2c-0.1,0.1-0.1,0.3-0.1,0.4v2.5c0,0.1,0,0.1-0.1,0.1h-0.9
			c0,0-0.1,0-0.1-0.1c-0.1-0.1-0.1-0.2-0.2-0.3l-0.4-1h-0.1v0.4c0,0.1,0,0.2,0.1,0.2c0.1,0.1,0.1,0.2,0.1,0.3v0.4
			c0,0.1-0.1,0.1-0.1,0.1l0,0h-0.9c-0.1,0-0.1,0-0.1-0.1v-0.3c0-0.1,0-0.2,0.1-0.3c0-0.1,0.1-0.2,0.1-0.3v-1.7c0-0.1,0-0.2-0.1-0.3
			c0,0,0-0.1,0-0.2v-0.5c0-0.1,0.1-0.1,0.1-0.1c0,0,0,0,0,0C89.8,46.6,90.3,46.6,90.3,46.6z"/>
		<path class="st8" d="M90.3,46.6c0.8,0,0.5-0.1,0.8,0.5c0.1,0.3,0.2,0.5,0.3,0.8l0,0v-0.1c0-0.1,0-0.3,0-0.4c0-0.1,0-0.2,0-0.2
			c0-0.2,0-0.4,0-0.6h1c0.1,0,0.1,0,0.1,0.1v0.4c0,0.1,0,0.1,0,0.2c-0.1,0.1-0.1,0.3-0.1,0.4v2.5c0,0.1,0,0.1-0.1,0.1h-0.9
			c0,0-0.1,0-0.1-0.1c-0.1-0.1-0.1-0.2-0.2-0.3l-0.4-1h-0.1v0.4c0,0.1,0,0.2,0.1,0.2c0.1,0.1,0.1,0.2,0.1,0.3v0.4
			c0,0.1-0.1,0.1-0.1,0.1l0,0h-0.9c-0.1,0-0.1,0-0.1-0.1v-0.3c0-0.1,0-0.2,0.1-0.3c0-0.1,0.1-0.2,0.1-0.3v-1.7c0-0.1,0-0.2-0.1-0.3
			c0,0,0-0.1,0-0.2v-0.5c0-0.1,0.1-0.1,0.1-0.1c0,0,0,0,0,0C89.8,46.6,90.3,46.6,90.3,46.6z"/>
		<path class="st4" d="M72.2,46.6h0.3c0.3,0,0.3,0,0.4,0.3s0.3,0.8,0.4,1.1h0.1c0-0.3,0-0.5-0.1-0.8c0-0.2,0-0.4,0-0.6h1
			c0.2,0,0.2,0,0.2,0.2v0.3c0,0.1,0,0.2,0,0.2c-0.1,0.1-0.1,0.2-0.1,0.3v2.6l-0.1,0.1h-0.9c-0.1,0-0.1,0-0.2-0.1l-0.5-1.1
			c0-0.1-0.1-0.2-0.1-0.2l0,0v0.5c0,0,0,0.1,0,0.1c0.1,0.2,0.1,0.5,0.1,0.7c0,0.1-0.1,0.1-0.1,0.1l0,0h-0.9c-0.1,0-0.1-0.1-0.1-0.1
			v-0.4c0-0.1,0-0.1,0.1-0.2c0.1-0.1,0.1-0.2,0.1-0.3v-1.7c0-0.1,0-0.2,0-0.2c-0.1-0.1-0.1-0.2-0.1-0.3v-0.3c0-0.1,0.1-0.1,0.1-0.1
			l0,0H72.2L72.2,46.6z"/>
		<path class="st8" d="M72.2,46.6h0.3c0.3,0,0.3,0,0.4,0.3s0.3,0.8,0.4,1.1h0.1c0-0.3,0-0.5-0.1-0.8c0-0.2,0-0.4,0-0.6h1
			c0.2,0,0.2,0,0.2,0.2v0.3c0,0.1,0,0.2,0,0.2c-0.1,0.1-0.1,0.2-0.1,0.3v2.6l-0.1,0.1h-0.9c-0.1,0-0.1,0-0.2-0.1l-0.5-1.1
			c0-0.1-0.1-0.2-0.1-0.2l0,0v0.5c0,0,0,0.1,0,0.1c0.1,0.2,0.1,0.5,0.1,0.7c0,0.1-0.1,0.1-0.1,0.1l0,0h-0.9c-0.1,0-0.1-0.1-0.1-0.1
			v-0.4c0-0.1,0-0.1,0.1-0.2c0.1-0.1,0.1-0.2,0.1-0.3v-1.7c0-0.1,0-0.2,0-0.2c-0.1-0.1-0.1-0.2-0.1-0.3v-0.3c0-0.1,0.1-0.1,0.1-0.1
			l0,0H72.2L72.2,46.6z"/>
		<path class="st4" d="M93,48.4v-0.8c0-0.1,0-0.2,0-0.3c0.1-0.3,0.2-0.5,0.5-0.6c0.1-0.1,0.3-0.1,0.4-0.1h0.6c0.4,0,0.8,0.1,1.1,0.3
			c0.1,0,0.1,0.1,0.1,0.1v0.7c0,0.1,0,0.1-0.1,0.1c0,0,0,0,0,0h-0.9c-0.1,0-0.1,0-0.1-0.1c0-0.1,0-0.1,0-0.2c0-0.1-0.1-0.2-0.2-0.2
			c-0.1,0-0.2,0.1-0.2,0.2v1.8c0,0.1,0.1,0.2,0.2,0.2c0.1,0,0.2,0,0.2-0.1c0-0.1,0-0.3,0-0.4l-0.1-0.1c-0.1,0-0.1-0.1-0.1-0.1v-0.5
			c0-0.1,0-0.1,0.1-0.1h1.1c0.1,0,0.1,0.1,0.1,0.1l0,0l0,0v1.5c0,0.1,0,0.1-0.1,0.2l-0.3,0.1c-0.5,0.2-1,0.2-1.5,0.1l-0.2-0.1
			c-0.3-0.1-0.5-0.3-0.6-0.6c0-0.2-0.1-0.3-0.1-0.5L93,48.4L93,48.4z"/>
		<path class="st8" d="M93,48.4v-0.8c0-0.1,0-0.2,0-0.3c0.1-0.3,0.2-0.5,0.5-0.6c0.1-0.1,0.3-0.1,0.4-0.1h0.6c0.4,0,0.8,0.1,1.1,0.3
			c0.1,0,0.1,0.1,0.1,0.1v0.7c0,0.1,0,0.1-0.1,0.1c0,0,0,0,0,0h-0.9c-0.1,0-0.1,0-0.1-0.1c0-0.1,0-0.1,0-0.2c0-0.1-0.1-0.2-0.2-0.2
			c-0.1,0-0.2,0.1-0.2,0.2v1.8c0,0.1,0.1,0.2,0.2,0.2c0.1,0,0.2,0,0.2-0.1c0-0.1,0-0.3,0-0.4l-0.1-0.1c-0.1,0-0.1-0.1-0.1-0.1v-0.5
			c0-0.1,0-0.1,0.1-0.1h1.1c0.1,0,0.1,0.1,0.1,0.1l0,0l0,0v1.5c0,0.1,0,0.1-0.1,0.2l-0.3,0.1c-0.5,0.2-1,0.2-1.5,0.1l-0.2-0.1
			c-0.3-0.1-0.5-0.3-0.6-0.6c0-0.2-0.1-0.3-0.1-0.5L93,48.4L93,48.4z"/>
		<path class="st4" d="M74.9,48.4v-0.7c0-0.1,0-0.2,0-0.3c0-0.3,0.2-0.6,0.5-0.7c0.1-0.1,0.3-0.1,0.4-0.1h0.6c0.4,0,0.8,0.1,1.1,0.3
			c0,0,0.1,0.1,0.1,0.1v0.8c0,0-0.1,0.1-0.1,0.1h-0.9c-0.1,0-0.1,0-0.1-0.1v-0.2c0,0,0,0,0-0.1c-0.1-0.1-0.2-0.1-0.2,0l0,0
			c-0.1,0-0.1,0.1-0.1,0.2c0,0.1,0,0.1,0,0.2v1.5c0,0.1,0,0.1,0,0.2c0,0.1,0.1,0.1,0.2,0.2c0.1,0,0.2-0.1,0.2-0.2v-0.4
			c0,0,0,0,0-0.1c-0.1,0-0.2-0.2-0.1-0.3v-0.4c0-0.1,0-0.1,0.1-0.1h1c0.1,0,0.2,0,0.2,0.2v1.5c0,0.1-0.1,0.2-0.2,0.2
			c-0.2,0.1-0.3,0.1-0.5,0.2c-0.4,0.1-0.8,0.1-1.2,0c-0.4-0.1-0.7-0.4-0.8-0.8v-0.5L74.9,48.4z"/>
		<path class="st8" d="M74.9,48.4v-0.7c0-0.1,0-0.2,0-0.3c0-0.3,0.2-0.6,0.5-0.7c0.1-0.1,0.3-0.1,0.4-0.1h0.6c0.4,0,0.8,0.1,1.1,0.3
			c0,0,0.1,0.1,0.1,0.1v0.8c0,0-0.1,0.1-0.1,0.1h-0.9c-0.1,0-0.1,0-0.1-0.1v-0.2c0,0,0,0,0-0.1c-0.1-0.1-0.2-0.1-0.2,0l0,0
			c-0.1,0-0.1,0.1-0.1,0.2c0,0.1,0,0.1,0,0.2v1.5c0,0.1,0,0.1,0,0.2c0,0.1,0.1,0.1,0.2,0.2c0.1,0,0.2-0.1,0.2-0.2v-0.4
			c0,0,0,0,0-0.1c-0.1,0-0.2-0.2-0.1-0.3v-0.4c0-0.1,0-0.1,0.1-0.1h1c0.1,0,0.2,0,0.2,0.2v1.5c0,0.1-0.1,0.2-0.2,0.2
			c-0.2,0.1-0.3,0.1-0.5,0.2c-0.4,0.1-0.8,0.1-1.2,0c-0.4-0.1-0.7-0.4-0.8-0.8v-0.5L74.9,48.4z"/>
		<path class="st4" d="M81.7,48.4v0.8c0,0.1,0,0.2,0.1,0.3c0.1,0.1,0.1,0.2,0.1,0.3v0.3c0,0.1-0.1,0.1-0.1,0.1l0,0h-1.2
			c-0.1,0-0.1-0.1-0.1-0.1v-0.4c0-0.1,0-0.1,0.1-0.2c0.1-0.1,0.1-0.2,0.1-0.3v-1.8c0,0,0-0.1-0.1-0.1s-0.1,0-0.1,0.1
			c0,0.1,0,0.1,0,0.2v0.4c0,0.1-0.1,0.1-0.1,0.1h-0.6c-0.1,0-0.2,0-0.2-0.2v-1.3c0-0.1,0-0.1,0.1-0.2c0,0,0,0,0,0h3
			c0,0,0.1,0,0.1,0.1c0,0,0,0.1,0,0.1V48c0,0,0,0.1,0,0.1c0,0,0,0.1-0.1,0.1c-0.2,0-0.5,0-0.7,0l-0.1-0.1c-0.1-0.1,0-0.1,0-0.1v-0.5
			c0,0-0.1-0.1-0.1-0.1l0,0v0.9L81.7,48.4z"/>
		<path class="st8" d="M81.7,48.4v0.8c0,0.1,0,0.2,0.1,0.3c0.1,0.1,0.1,0.2,0.1,0.3v0.3c0,0.1-0.1,0.1-0.1,0.1l0,0h-1.2
			c-0.1,0-0.1-0.1-0.1-0.1v-0.4c0-0.1,0-0.1,0.1-0.2c0.1-0.1,0.1-0.2,0.1-0.3v-1.8c0,0,0-0.1-0.1-0.1s-0.1,0-0.1,0.1
			c0,0.1,0,0.1,0,0.2v0.4c0,0.1-0.1,0.1-0.1,0.1h-0.6c-0.1,0-0.2,0-0.2-0.2v-1.3c0-0.1,0-0.1,0.1-0.2c0,0,0,0,0,0h3
			c0,0,0.1,0,0.1,0.1c0,0,0,0.1,0,0.1V48c0,0,0,0.1,0,0.1c0,0,0,0.1-0.1,0.1c-0.2,0-0.5,0-0.7,0l-0.1-0.1c-0.1-0.1,0-0.1,0-0.1v-0.5
			c0,0-0.1-0.1-0.1-0.1l0,0v0.9L81.7,48.4z"/>
		<path class="st4" d="M70,49v0.3c0,0.1-0.1,0.1-0.2,0.1c-0.1,0-0.2,0-0.2-0.1c0,0,0-0.1,0-0.1c0-0.1,0-0.1,0-0.2v-1.3
			c0-0.1,0-0.2,0-0.2c0-0.1,0.1-0.1,0.2-0.2c0.1,0,0.2,0,0.2,0.1c0,0,0,0,0,0v0.9C70.1,48.6,70,48.8,70,49z M71,45.8
			c-0.1,0-0.1,0-0.2,0.1c-0.2,0.2-0.2,0.4,0,0.6l0,0l0.2,0.1v0.1c0,0.1-0.1,0.1-0.2,0.1c-0.2-0.1-0.4-0.2-0.6-0.2
			c-0.4-0.1-0.8-0.1-1.1,0c-0.1,0-0.2,0.1-0.3,0.1c-0.2,0.1-0.4,0.3-0.4,0.6V49c0,0.2,0,0.3,0,0.5c0,0.3,0.2,0.6,0.5,0.7l0.3,0.1
			c0.4,0.1,0.8,0.1,1.2,0c0.1,0,0.2-0.1,0.3-0.1c0.2-0.1,0.3-0.3,0.4-0.5c0-0.1,0.1-0.3,0.1-0.4v-1.8c0-0.1,0-0.3-0.1-0.4
			c0.1-0.2,0.2-0.2,0.3-0.4c0.1-0.1,0.1-0.3,0.2-0.4C71.5,46.1,71.3,45.8,71,45.8C71.1,45.8,71.1,45.8,71,45.8L71,45.8z"/>
		<path class="st8" d="M70,49v0.3c0,0.1-0.1,0.1-0.2,0.1c-0.1,0-0.2,0-0.2-0.1c0,0,0-0.1,0-0.1c0-0.1,0-0.1,0-0.2v-1.3
			c0-0.1,0-0.2,0-0.2c0-0.1,0.1-0.1,0.2-0.2c0.1,0,0.2,0,0.2,0.1c0,0,0,0,0,0v0.9C70.1,48.6,70,48.8,70,49z M71,45.8
			c-0.1,0-0.1,0-0.2,0.1c-0.2,0.2-0.2,0.4,0,0.6l0,0l0.2,0.1v0.1c0,0.1-0.1,0.1-0.2,0.1c-0.2-0.1-0.4-0.2-0.6-0.2
			c-0.4-0.1-0.8-0.1-1.1,0c-0.1,0-0.2,0.1-0.3,0.1c-0.2,0.1-0.4,0.3-0.4,0.6V49c0,0.2,0,0.3,0,0.5c0,0.3,0.2,0.6,0.5,0.7l0.3,0.1
			c0.4,0.1,0.8,0.1,1.2,0c0.1,0,0.2-0.1,0.3-0.1c0.2-0.1,0.3-0.3,0.4-0.5c0-0.1,0.1-0.3,0.1-0.4v-1.8c0-0.1,0-0.3-0.1-0.4
			c0.1-0.2,0.2-0.2,0.3-0.4c0.1-0.1,0.1-0.3,0.2-0.4C71.5,46.1,71.3,45.8,71,45.8C71.1,45.8,71.1,45.8,71,45.8L71,45.8z"/>
		<path class="st4" d="M84.7,47.9c0,0.1-0.2,0.2-0.3,0.2l0,0V48c0-0.1,0-0.1,0-0.2v-0.3c0-0.2,0.1-0.2,0.2-0.1
			c0.1,0,0.2,0.1,0.2,0.2C84.8,47.6,84.8,47.8,84.7,47.9z M86,49.7c0,0,0-0.1,0-0.1c-0.1-0.1-0.1-0.2-0.1-0.3v-0.4
			c0-0.1-0.1-0.3-0.2-0.3l-0.1-0.1c0,0,0-0.1,0-0.1l0,0c0.2-0.1,0.3-0.3,0.3-0.4c0.1-0.2,0.1-0.4,0-0.6c0-0.3-0.3-0.6-0.6-0.6
			c-0.2-0.1-0.4-0.1-0.6-0.1h-1.7c-0.1,0-0.1,0-0.1,0.2v0.4c0,0.1,0,0.2,0.1,0.3c0,0.1,0.1,0.1,0.1,0.2v1.7c0,0.1,0,0.2-0.1,0.3
			C83,49.6,83,49.7,83,49.8v0.3c0,0.1,0.1,0.1,0.1,0.1h1.2l0.1-0.1l0,0c0-0.2,0.1-0.4-0.1-0.6l0,0c0-0.2,0-0.4,0-0.6h0.1
			c0.1,0,0.3,0.1,0.3,0.2c0,0.1,0,0.2,0,0.4v0.7c0,0.1,0.1,0.2,0.2,0.2h1c0,0,0.1,0,0.1-0.1C86,50.1,86,49.9,86,49.7z"/>
		<path class="st8" d="M84.7,47.9c0,0.1-0.2,0.2-0.3,0.2l0,0V48c0-0.1,0-0.1,0-0.2v-0.3c0-0.2,0.1-0.2,0.2-0.1
			c0.1,0,0.2,0.1,0.2,0.2C84.8,47.6,84.8,47.8,84.7,47.9z M86,49.7c0,0,0-0.1,0-0.1c-0.1-0.1-0.1-0.2-0.1-0.3v-0.4
			c0-0.1-0.1-0.3-0.2-0.3l-0.1-0.1c0,0,0-0.1,0-0.1l0,0c0.2-0.1,0.3-0.3,0.3-0.4c0.1-0.2,0.1-0.4,0-0.6c0-0.3-0.3-0.6-0.6-0.6
			c-0.2-0.1-0.4-0.1-0.6-0.1h-1.7c-0.1,0-0.1,0-0.1,0.2v0.4c0,0.1,0,0.2,0.1,0.3c0,0.1,0.1,0.1,0.1,0.2v1.7c0,0.1,0,0.2-0.1,0.3
			C83,49.6,83,49.7,83,49.8v0.3c0,0.1,0.1,0.1,0.1,0.1h1.2l0.1-0.1l0,0c0-0.2,0.1-0.4-0.1-0.6l0,0c0-0.2,0-0.4,0-0.6h0.1
			c0.1,0,0.3,0.1,0.3,0.2c0,0.1,0,0.2,0,0.4v0.7c0,0.1,0.1,0.2,0.2,0.2h1c0,0,0.1,0,0.1-0.1C86,50.1,86,49.9,86,49.7z"/>
		<path class="st4" d="M87.7,48.6L87.7,48.6c-0.1,0-0.1,0-0.1-0.1c0,0,0,0,0,0l0,0c0-0.2,0.1-0.4,0.1-0.6l0.1,0l0,0
			c0,0.2,0.1,0.4,0.1,0.6C87.9,48.6,87.8,48.6,87.7,48.6z M89.3,49.7C89.3,49.7,89.3,49.6,89.3,49.7c-0.1-0.3-0.2-0.5-0.2-0.7
			c-0.1-0.6-0.2-1.3-0.4-1.9c0-0.1,0-0.2-0.1-0.4c0-0.1-0.1-0.1-0.1-0.1h-1.4c-0.1,0-0.1,0-0.1,0.1V47c-0.1,0.7-0.3,1.5-0.4,2.2
			c0,0.2-0.1,0.3-0.1,0.5c0,0,0,0.1,0,0.1v0.5c0,0.2,0,0.1,0.1,0.1h1.1V50c0-0.2,0-0.3-0.1-0.4v-0.1c0-0.1,0-0.1,0.1-0.1
			c0,0,0,0,0,0H88c0.1,0,0.1,0,0.1,0.1l0,0L88,49.7c0,0.2,0,0.4,0,0.6c0.1,0.1,0.3,0,0.4,0h0.9C89.4,50.1,89.4,49.9,89.3,49.7z"/>
		<path class="st8" d="M87.7,48.6L87.7,48.6c-0.1,0-0.1,0-0.1-0.1c0,0,0,0,0,0l0,0c0-0.2,0.1-0.4,0.1-0.6l0.1,0l0,0
			c0,0.2,0.1,0.4,0.1,0.6C87.9,48.6,87.8,48.6,87.7,48.6z M89.3,49.7C89.3,49.7,89.3,49.6,89.3,49.7c-0.1-0.3-0.2-0.5-0.2-0.7
			c-0.1-0.6-0.2-1.3-0.4-1.9c0-0.1,0-0.2-0.1-0.4c0-0.1-0.1-0.1-0.1-0.1h-1.4c-0.1,0-0.1,0-0.1,0.1V47c-0.1,0.7-0.3,1.5-0.4,2.2
			c0,0.2-0.1,0.3-0.1,0.5c0,0,0,0.1,0,0.1v0.5c0,0.2,0,0.1,0.1,0.1h1.1V50c0-0.2,0-0.3-0.1-0.4v-0.1c0-0.1,0-0.1,0.1-0.1
			c0,0,0,0,0,0H88c0.1,0,0.1,0,0.1,0.1l0,0L88,49.7c0,0.2,0,0.4,0,0.6c0.1,0.1,0.3,0,0.4,0h0.9C89.4,50.1,89.4,49.9,89.3,49.7z"/>
		<path class="st4" d="M60.2,48.2c0,0.1-0.2,0.2-0.3,0.2c0,0,0,0,0,0l0,0c0,0-0.1,0-0.1-0.1v-0.4l0,0v-0.5c0-0.2,0-0.1,0.1-0.1
			c0.1,0,0.3,0.1,0.3,0.2C60.2,47.8,60.2,48,60.2,48.2z M61.4,47.5c0-0.1,0-0.2,0-0.2c-0.1-0.3-0.3-0.5-0.6-0.6
			c-0.1-0.1-0.3-0.1-0.5-0.1h-1.8v0.2c0,0.2,0,0.4,0.1,0.6v1.9c0,0.1,0,0.2-0.1,0.3c0,0,0,0.1,0,0.2v0.4c0,0,0,0.1,0.1,0.1
			c0,0,0,0,0,0h1.2c0.1,0,0.1,0,0.1-0.1v-0.4c0,0,0-0.1,0-0.2c-0.1-0.3-0.1-0.3,0.2-0.3h0.2c0.1,0,0.3,0,0.4-0.1
			c0.3-0.1,0.5-0.3,0.6-0.6c0-0.1,0-0.2,0-0.3C61.4,48,61.4,47.8,61.4,47.5z"/>
		<path class="st8" d="M60.2,48.2c0,0.1-0.2,0.2-0.3,0.2c0,0,0,0,0,0l0,0c0,0-0.1,0-0.1-0.1v-0.4l0,0v-0.5c0-0.2,0-0.1,0.1-0.1
			c0.1,0,0.3,0.1,0.3,0.2C60.2,47.8,60.2,48,60.2,48.2z M61.4,47.5c0-0.1,0-0.2,0-0.2c-0.1-0.3-0.3-0.5-0.6-0.6
			c-0.1-0.1-0.3-0.1-0.5-0.1h-1.8v0.2c0,0.2,0,0.4,0.1,0.6v1.9c0,0.1,0,0.2-0.1,0.3c0,0,0,0.1,0,0.2v0.4c0,0,0,0.1,0.1,0.1
			c0,0,0,0,0,0h1.2c0.1,0,0.1,0,0.1-0.1v-0.4c0,0,0-0.1,0-0.2c-0.1-0.3-0.1-0.3,0.2-0.3h0.2c0.1,0,0.3,0,0.4-0.1
			c0.3-0.1,0.5-0.3,0.6-0.6c0-0.1,0-0.2,0-0.3C61.4,48,61.4,47.8,61.4,47.5z"/>
		<path class="st9" d="M64,50.3h-0.6c-0.1,0-0.1,0-0.1-0.1v-0.4c0,0,0-0.1,0-0.1c0.1-0.3,0.1-0.6,0.1-0.8c0,0,0-0.1-0.1-0.1h-0.2
			c0,0-0.1,0.1-0.1,0.1c0,0.3,0,0.5,0.1,0.8c0,0.2,0,0.4,0,0.6c0,0,0,0.1-0.1,0.1h-1.2c-0.1,0-0.1-0.1-0.1-0.1v-0.3
			c0-0.1,0-0.2,0.1-0.3c0.1-0.1,0.1-0.2,0.1-0.3v-1.7c0-0.1,0-0.2,0-0.2c-0.1-0.2-0.1-0.3-0.1-0.5v-0.2c0-0.1,0.1-0.1,0.1-0.1
			c0,0,0,0,0,0H63c0.1,0,0.1,0.1,0.1,0.1c0,0,0,0,0,0c0,0.2,0,0.5-0.1,0.7c0,0.2,0,0.3,0,0.5c0,0,0,0.1,0.1,0.1h0.3
			c0-0.2,0-0.4,0-0.6c-0.1-0.1-0.1-0.3-0.1-0.4v-0.2c0-0.1,0-0.1,0.1-0.1h1.2c0.1,0,0.1,0.1,0.1,0.1V47c0,0.1,0,0.2-0.1,0.3
			c0,0.1-0.1,0.2-0.1,0.3v1.6c0,0.1,0,0.3,0.1,0.4c0,0.1,0,0.1,0,0.2v0.3c0,0.1,0,0.1-0.1,0.2c0,0,0,0,0,0
			C64.6,50.3,64,50.3,64,50.3z"/>
		<path class="st9" d="M66.8,48.4v-0.8c0-0.1,0-0.2-0.1-0.3c0,0,0,0,0-0.1c0-0.2,0-0.4,0-0.6 M66.7,46.6h1.1c0,0,0,0,0-0.1l-0.2-0.1
			c-0.2-0.1-0.2-0.3-0.1-0.5c0-0.1,0.1-0.1,0.2-0.2c0.2-0.1,0.5,0,0.7,0.2c0,0,0,0,0,0c0,0,0,0.1,0,0.1c0,0.2,0,0.4-0.1,0.5
			c-0.1,0.1-0.2,0.3-0.3,0.4c-0.1,0.1-0.1,0.1-0.1,0.2v2c0,0.1,0,0.3,0,0.4c-0.1,0.4-0.4,0.6-0.7,0.7c-0.4,0.1-0.8,0.1-1.2,0
			c-0.3-0.1-0.5-0.3-0.7-0.5c0-0.1-0.1-0.2-0.1-0.3v-1.8c0-0.1,0-0.3-0.1-0.4c0,0,0-0.1,0-0.1v-0.5v0h1.2c0.1,0,0.2,0,0.2,0.2v0.3
			c0,0.1,0,0.2-0.1,0.2c-0.1,0.1-0.1,0.2-0.1,0.3v1.8c0,0.1,0.1,0.2,0.2,0.2c0,0,0,0,0,0l0,0c0.1,0,0.1,0,0.1-0.1l0,0
			c0-0.1,0-0.2,0-0.3v-0.7L66.7,46.6z"/>
		<path class="st9" d="M90.3,46.6c0.8,0,0.5-0.1,0.8,0.5c0.1,0.3,0.2,0.5,0.3,0.8l0,0c0-0.1,0-0.3,0-0.4c0-0.1,0-0.2,0-0.2
			c0-0.2,0-0.4,0-0.6v-0.1h1c0.1,0,0.1,0,0.1,0.1v0.4c0,0.1,0,0.1,0,0.2c-0.1,0.1-0.1,0.3-0.1,0.4v2.5c0,0.1,0,0.1-0.1,0.1h-0.9
			c0,0-0.1,0-0.1-0.1c-0.1-0.1-0.1-0.2-0.2-0.3l-0.4-1h-0.1v0.4c0,0.1,0,0.2,0.1,0.2c0.1,0.1,0.1,0.2,0.1,0.3v0.4
			c0,0.1-0.1,0.1-0.1,0.1l0,0h-0.9c-0.1,0-0.1,0-0.1-0.1c0,0,0,0,0,0l0,0V50c0-0.1,0-0.2,0.1-0.3c0-0.1,0.1-0.2,0.1-0.3v-1.7
			c0-0.1,0-0.2-0.1-0.3c0,0,0-0.1,0-0.2v-0.4c0-0.1,0.1-0.1,0.1-0.1c0,0,0,0,0,0C89.8,46.6,90.3,46.6,90.3,46.6z"/>
		<path class="st9" d="M72.2,46.6h0.3c0.3,0,0.3,0,0.4,0.3s0.3,0.8,0.4,1.1h0.1c0.1,0,0,0,0,0c0-0.3,0-0.5-0.1-0.8
			c0-0.2,0-0.4,0-0.6c0,0,0,0,0.1,0h0.9c0.2,0,0.2,0,0.2,0.2v0.3c0,0.1,0,0.2,0,0.2c-0.1,0.1-0.1,0.2-0.1,0.3v2.6l-0.1,0.1h-0.9
			c-0.1,0-0.1,0-0.2-0.1l-0.5-1.1c0-0.1-0.1-0.2-0.1-0.2l0,0v0.5c0,0,0,0.1,0,0.1c0.1,0.2,0.1,0.5,0.1,0.7c0,0.1-0.1,0.1-0.1,0.1
			l0,0h-0.9c-0.1,0-0.1-0.1-0.1-0.1v-0.4c0-0.1,0-0.1,0.1-0.2c0.1-0.1,0.1-0.2,0.1-0.3v-1.7c0-0.1,0-0.2,0-0.2
			c-0.1-0.1-0.1-0.2-0.1-0.3v-0.3c0-0.1,0.1-0.1,0.1-0.1l0,0L72.2,46.6L72.2,46.6z"/>
		<path class="st9" d="M93,48.4v-0.8c0-0.1,0-0.2,0-0.4c0.1-0.3,0.2-0.5,0.5-0.6c0.1-0.1,0.3-0.1,0.4-0.1h0.6c0.4,0,0.8,0.1,1.1,0.3
			c0.1,0,0.1,0.1,0.1,0.1v0.7c0,0.1,0,0.1-0.1,0.1c0,0,0,0,0,0h-0.9c-0.1,0-0.1,0-0.1-0.1c0-0.1,0-0.1,0-0.2c0-0.1-0.1-0.2-0.2-0.2
			c-0.1,0-0.2,0.1-0.2,0.2c0,0.1,0,0.1,0,0.2v1.6c0,0.1,0.1,0.2,0.2,0.2c0.1,0,0.2,0,0.2-0.1c0.1-0.1,0.1-0.3,0-0.4h-0.1
			c-0.1,0-0.1-0.1-0.1-0.1v-0.5c0-0.1,0-0.1,0.1-0.1h1.1c0.1,0,0.1,0.1,0.1,0.1v1.5c0,0.1,0,0.1-0.1,0.2l-0.3,0.1
			c-0.5,0.2-1,0.2-1.5,0.1l-0.2-0.1c-0.3-0.1-0.5-0.3-0.6-0.6c0-0.2-0.1-0.3-0.1-0.5L93,48.4L93,48.4z"/>
		<path class="st9" d="M74.9,48.4v-0.7c0-0.1,0-0.2,0-0.3c0-0.3,0.2-0.6,0.5-0.7c0.1-0.1,0.3-0.1,0.4-0.1h0.6c0.4,0,0.8,0.1,1.1,0.4
			c0,0,0.1,0.1,0.1,0.1v0.8c0,0-0.1,0.1-0.1,0.1h-0.9c-0.1,0-0.1,0-0.1-0.1v-0.2c0,0,0,0,0-0.1c-0.1-0.1-0.2-0.1-0.2,0l0,0
			c-0.1,0-0.1,0.1-0.1,0.2c0,0.1,0,0.1,0,0.2v1.7c0,0.1,0.1,0.1,0.2,0.2c0.1,0,0.2-0.1,0.2-0.2v-0.4c0,0,0,0,0-0.1
			c-0.1,0-0.2-0.2-0.1-0.3v-0.4c0-0.1,0-0.1,0.1-0.1h1c0.1,0,0.2,0,0.2,0.2v1.5c0,0.1-0.1,0.2-0.2,0.2c-0.2,0.1-0.3,0.1-0.5,0.2
			c-0.4,0.1-0.8,0.1-1.2,0c-0.4-0.1-0.7-0.4-0.8-0.8v-0.5L74.9,48.4z"/>
		<path class="st10" d="M81.7,48.4v0.8c0,0.1,0,0.2,0.1,0.3c0.1,0.1,0.1,0.2,0.1,0.3v0.3c0,0.1-0.1,0.1-0.1,0.1l0,0h-1.2
			c-0.1,0-0.1-0.1-0.1-0.1v-0.4c0-0.1,0-0.1,0.1-0.2c0.1-0.1,0.1-0.2,0.1-0.3v-1.8c0,0,0-0.1-0.1-0.1s-0.1,0-0.1,0.1
			c0,0.1,0,0.1,0,0.2v0.4c0,0.1-0.1,0.1-0.1,0.1h-0.6c-0.1,0-0.2,0-0.2-0.2v-1.3c0-0.1,0-0.1,0.1-0.2c0,0,0,0,0,0h3
			c0,0,0.1,0,0.1,0.1c0,0,0,0.1,0,0.1V48c0,0,0,0.1,0,0.1c0,0,0,0.1-0.1,0.1c-0.2,0-0.5,0-0.7,0l-0.1-0.1v-0.6c0,0,0-0.1-0.1-0.1
			l0,0v0.9L81.7,48.4z"/>
		<path class="st9" d="M70,49.1v0.3c0,0.1-0.1,0.1-0.2,0.1c-0.1,0-0.2,0-0.2-0.1c0,0,0-0.1,0-0.1v-1.5c0-0.1,0-0.2,0-0.2
			c0-0.1,0.1-0.1,0.2-0.2c0.1,0,0.2,0,0.2,0.1c0,0,0,0,0,0v0.9C70.1,48.6,70,48.8,70,49.1z M71,45.8c-0.2,0-0.4,0.2-0.3,0.4
			c0,0.1,0.1,0.2,0.2,0.3l0.2,0.1v0.1c0,0.1-0.1,0.1-0.2,0.1c-0.2-0.1-0.4-0.2-0.6-0.2c-0.4-0.1-0.8-0.1-1.1,0
			c-0.1,0-0.2,0.1-0.3,0.1c-0.2,0.1-0.4,0.3-0.4,0.6V49c0,0.2,0,0.3,0,0.5c0,0.3,0.2,0.6,0.5,0.7c0.1,0,0.2,0.1,0.3,0.1
			c0.4,0.1,0.8,0.1,1.2,0c0.1,0,0.2-0.1,0.3-0.1c0.2-0.1,0.4-0.3,0.4-0.5c0-0.1,0.1-0.3,0.1-0.4v-1.7c0-0.1,0-0.3-0.1-0.4
			c0.1-0.2,0.2-0.2,0.3-0.4c0.1-0.1,0.1-0.3,0.2-0.4c0.1-0.3-0.1-0.5-0.3-0.6c-0.1,0-0.2,0-0.3,0L71,45.8z"/>
		<path class="st9" d="M84.7,47.9c0,0.2-0.2,0.3-0.3,0.2l0,0v-0.5c0-0.2,0.1-0.2,0.2-0.1c0.1,0,0.2,0.1,0.2,0.2
			C84.8,47.7,84.8,47.8,84.7,47.9z M86,49.7c0,0,0-0.1,0-0.1c-0.1-0.1-0.1-0.2-0.1-0.3v-0.4c0-0.1-0.1-0.3-0.2-0.3l-0.1-0.1
			c0,0,0-0.1,0-0.1l0,0c0.2-0.1,0.3-0.2,0.4-0.4c0.1-0.2,0.1-0.4,0-0.6c0-0.3-0.3-0.6-0.6-0.6c-0.2-0.1-0.4-0.1-0.6-0.1h-1.7
			c-0.1,0-0.1,0-0.1,0.2v0.4c0,0.1,0,0.2,0.1,0.3c0,0.1,0.1,0.1,0.1,0.2v1.7c0,0.1,0,0.2-0.1,0.3C83,49.7,83,49.8,83,49.9v0.3
			c0,0.1,0.1,0.1,0.1,0.1h1.2l0.1-0.1l0,0c0-0.2,0.1-0.4-0.1-0.6l0,0c0-0.2,0-0.4,0-0.6h0.1c0.1,0,0.3,0.1,0.3,0.2
			c0,0.1,0,0.2,0,0.4v0.6c0,0.1,0.1,0.2,0.2,0.2h1c0,0,0.1,0,0.1-0.1C86,50.2,86,50,86,49.7z"/>
		<path class="st9" d="M87.7,48.6L87.7,48.6c-0.1,0-0.1,0-0.1-0.1c0,0,0,0,0,0l0,0c0-0.2,0.1-0.4,0.1-0.6l0.1-0.1c0.1-0.1,0,0,0,0
			c0,0.2,0.1,0.4,0.1,0.6C87.9,48.6,87.8,48.6,87.7,48.6z M89.3,49.7C89.3,49.7,89.3,49.7,89.3,49.7c-0.1-0.3-0.2-0.5-0.2-0.7
			c-0.1-0.6-0.2-1.3-0.4-1.9c0-0.1,0-0.2-0.1-0.3c0-0.1-0.1-0.1-0.1-0.1h-1.4c-0.1,0-0.1,0-0.1,0.1V47c-0.1,0.7-0.3,1.5-0.4,2.2
			c0,0.2-0.1,0.3-0.1,0.5c0,0,0,0.1,0,0.1v0.5c0,0.2,0,0.1,0.1,0.1h1.1l0,0V50c0-0.2,0-0.3-0.1-0.4v-0.1c0-0.1,0-0.1,0.1-0.1
			c0,0,0,0,0,0H88c0.1,0,0.1,0,0.1,0.1l0,0C88,49.7,87.9,50,88,50.3c0.1,0.1,0.3,0,0.4,0h0.9 M89.4,50.2c0-0.2,0-0.3-0.1-0.5
			L89.4,50.2z"/>
		<path class="st9" d="M60.2,48.3c0,0.1-0.2,0.2-0.3,0.2c0,0,0,0,0,0l0,0c0,0-0.1,0-0.1-0.1V48l0,0v-0.5c0-0.2,0-0.1,0.1-0.1
			c0.1,0,0.3,0.1,0.3,0.2C60.2,47.9,60.2,48.1,60.2,48.3z M61.4,47.5c0-0.1,0-0.2,0-0.2c-0.1-0.3-0.3-0.5-0.6-0.6
			c-0.1-0.1-0.3-0.1-0.5-0.1h-1.7h-0.1v0.2c0,0.2,0,0.4,0.1,0.6v1.8c0,0.1,0,0.2-0.1,0.3c0,0,0,0.1,0,0.2v0.4c0,0.1,0,0.1,0.1,0.1
			h1.2c0.1,0,0.1,0,0.1-0.1v-0.4c0,0,0-0.1,0-0.2c-0.1-0.3-0.1-0.3,0.2-0.3h0.2c0.1,0,0.3,0,0.4-0.1c0.3-0.1,0.5-0.3,0.6-0.5
			c0-0.1,0-0.2,0-0.3C61.4,48.1,61.4,47.8,61.4,47.5z"/>
		<path class="st11" d="M95.7,12.2H58.5v31.7h37.3V12.2z M95.2,12.7v30.7H59V12.7H95.2z"/>
		<path class="st12" d="M65.8,15.2h28.3v-1.6H65.8V15.2z"/>
		<path class="st12" d="M65.8,17.7h28.3v-1.6H65.8V17.7z"/>
		<path class="st12" d="M65.8,20h28.3v-1.6H65.8V20z"/>
		<path class="st12" d="M65.8,22.5h28.3v-1.6H65.8V22.5z"/>
		<path class="st12" d="M65.8,24.8h28.3v-1.6H65.8V24.8z"/>
		<path class="st12" d="M65.8,27.2h28.3v-1.6H65.8V27.2z"/>
		<path class="st12" d="M65.8,29.6h28.3V28H65.8V29.6z"/>
		<path class="st12" d="M65.8,32.1h28.3v-1.6H65.8V32.1z"/>
		<path class="st12" d="M65.8,34.5h28.3v-1.6H65.8V34.5z"/>
		<path class="st12" d="M65.8,36.9h28.3v-1.6H65.8V36.9z"/>
		<path class="st12" d="M60,15.2h4.3v-1.6H60V15.2z"/>
		<path class="st12" d="M60,17.7h4.3v-1.6H60V17.7z"/>
		<path class="st12" d="M60,20h4.3v-1.6H60V20z"/>
		<path class="st12" d="M60,22.4h4.3v-1.6H60V22.4z"/>
		<path class="st12" d="M60,24.8h4.3v-1.6H60V24.8z"/>
		<path class="st12" d="M60,27.2h4.3v-1.6H60V27.2z"/>
		<path class="st12" d="M60,29.6h4.3V28H60V29.6z"/>
		<path class="st12" d="M60,32h4.3v-1.5H60V32z"/>
		<path class="st12" d="M60,34.4h4.3v-1.6H60V34.4z"/>
		<path class="st12" d="M60,36.9h4.3v-1.6H60V36.9z"/>
		<path class="st12" d="M60,39.8h34.1v-1.6H60V39.8z"/>
		<path class="st12" d="M60,42.3h34.1v-1.6H60V42.3z"/>
		<path class="st4" d="M77.8,20.7c0,0.4,0,0.8-0.1,1.2c0,0.1-0.1,0.2-0.2,0.3c-0.1,0.1-0.2,0.1-0.2,0.2c-0.3,0.2-0.6,0.4-0.9,0.6
			c0,0-0.1,0.1-0.1,0c0,0-0.1-0.1-0.1-0.1v0c0-0.2,0.1-0.3,0.2-0.5l0.2-0.2c0-0.1,0-0.2,0-0.2c0-0.1-0.1-0.1-0.2-0.2h-0.2
			c-0.9,0.1-1.9,0.2-2.8,0.5c-0.3,0.1-0.6,0.2-0.9,0.3c-0.1,0-0.2,0.1-0.2,0.2c0,0.1-0.1,0.2-0.1,0.3c-0.4,1.1-0.7,2.1-1,3.2
			c0,0.1,0,0.2-0.1,0.3c-0.1,0.1,0.1,0.2,0.2,0.2h0.1l0.3-0.1c0.9-0.3,1.9-0.5,2.8-0.6c0.3-0.1,0.6-0.1,0.9,0c0.1,0,0.2,0.1,0.2,0.2
			c0,0.4-0.2,0.7-0.6,0.8c-0.2,0.1-0.4,0.2-0.6,0.2l-0.8,0.2c-0.5,0.1-0.9,0.2-1.4,0.4c-0.6,0.2-1.2,0.4-1.8,0.7
			c-0.1,0-0.2,0.1-0.3,0.3c-0.1,0.2-0.2,0.4-0.2,0.6l-1.1,3.1v0.1c-0.1,0.3-0.1,0.3,0.2,0.6c0.2,0.2,0.3,0.4,0.4,0.6
			c0.1,0.3,0.1,0.7,0,1c-0.1,0.5-0.3,0.9-0.6,1.3c-0.1,0.1-0.3,0.3-0.4,0.4c-0.5,0.3-1.2,0.3-1.7,0c-0.3-0.1-0.5-0.5-0.4-0.8
			c0-0.1,0-0.2,0.1-0.3c0.5-1.8,1.1-3.5,1.7-5.3v-0.1c0-0.1,0-0.2-0.1-0.2l-0.2-0.1c-0.1-0.1-0.2-0.2-0.2-0.3V29
			c0.1-0.3,0.2-0.7,0.4-1c0.1-0.1,0.1-0.1,0.2-0.2c0.1,0,0.2-0.1,0.3-0.1c0.1-0.1,0.2-0.2,0.3-0.3c0.1-0.3,0.2-0.6,0.3-0.9l0.8-2.3
			c0-0.1,0.1-0.2,0.1-0.3c0-0.1,0-0.2-0.1-0.3c0,0-0.1-0.1-0.1-0.1c-0.1,0-0.2,0-0.2,0c-0.1,0.1-0.2,0.1-0.4,0.2l-1,0.6h-0.1
			c0,0,0,0,0,0c0-0.6,0-1.2,0.1-1.8c0-0.3,0.1-0.6,0.1-0.9c0-0.1,0-0.2,0.1-0.4c0.1-0.3,0.3-0.6,0.5-0.8c0.2-0.1,0.3-0.2,0.5-0.3
			c0.7-0.3,1.3-0.5,2-0.7c0.4-0.1,0.8-0.2,1.3-0.3c0.7-0.1,1.4-0.2,2.1-0.3c0.3,0,0.6-0.1,0.9-0.1c0.6,0,1.2,0,1.7,0.1
			c0.1,0,0.2,0,0.2,0.1c0.1,0,0.1,0.1,0.2,0.2c0.1,0.2,0.1,0.3,0.1,0.5L77.8,20.7z"/>
		<path class="st0" d="M75.3,23.3L75.3,23.3c0.1,0.2,0.1,0.3,0.2,0.4c0.3,0.3,0.7,0.4,1.1,0.3c0.1,0,0.3-0.1,0.4-0.2l0,0
			c0.2-0.2,0.4-0.3,0.7-0.5l0.1-0.1l0.2-0.1l0.1-0.1c0.3-0.2,0.5-0.6,0.6-1v-2.4c0-0.3-0.1-0.6-0.2-0.8c-0.1-0.3-0.3-0.6-0.6-0.7
			C77.8,18,77.7,18,77.5,18h-0.1c-0.7-0.2-1.3-0.2-2-0.2h-0.9L74,18l-0.6,0.1L73,18.1l-0.4,0.1l-0.6,0.1h-0.2l-0.2,0h-0.5
			c-0.7,0.2-1.4,0.5-2.1,0.8c-0.2,0.1-0.3,0.2-0.5,0.3l-0.2,0.1c-0.5,0.3-0.8,0.8-0.9,1.3V21l-0.1,0.2c0,0.2-0.1,0.4-0.1,0.6v2.5
			l0,0c0.1,0.6,0.6,1,1.2,0.9c0,0,0,0,0,0h0.2l0,0l-0.5,1.5v0.1l-0.1,0.1l0,0c-0.3,0.1-0.5,0.3-0.7,0.6c-0.2,0.4-0.4,0.8-0.5,1.3
			v0.4c0,0.3,0.1,0.5,0.2,0.7l0,0L67,30.3l-0.2,0.6l-0.3,0.9l-0.2,0.8l-0.7,2.2c0,0.1-0.1,0.3-0.1,0.5c-0.1,0.7,0.3,1.4,0.9,1.7
			c0.8,0.5,1.9,0.4,2.7-0.1c0.2-0.1,0.5-0.3,0.7-0.6c0.4-0.5,0.7-1.1,0.8-1.7c0.1-0.5,0.1-1,0-1.5V33c-0.1-0.3-0.2-0.5-0.4-0.8v-0.1
			l1.2-3.2l0.2-0.1c0.5-0.2,0.9-0.4,1.4-0.5l0.3-0.1l0.2-0.1l0.7-0.2h0.3l0.2,0L75,28l0,0c0.3-0.1,0.6-0.2,0.8-0.3
			c0.6-0.3,1-1,1-1.7c-0.1-0.6-0.8-1.1-1.4-1c-0.4,0-0.8,0-1.2,0.1l-0.9,0.2l-0.5,0.1l-0.3,0.1h-0.2l0.3-1l0.2-0.5l0.1-0.3l0.1-0.2
			l0.3-0.1h0.5l0.2,0L75.3,23.3L75.3,23.3z M67.3,35.5l0.7-2.2l0,0c0.1,0.1,0.2,0.2,0.3,0.3l0,0l0.1,0.1v0.1c0.1,0.2,0.1,0.4,0,0.6
			c-0.1,0.3-0.2,0.6-0.4,0.9c-0.1,0.1-0.1,0.1-0.2,0.2l0,0C67.6,35.4,67.4,35.5,67.3,35.5L67.3,35.5z M69.2,28.5L69.2,28.5l-0.3,0.8
			v0c0-0.1-0.1-0.2-0.2-0.2l0,0v-0.1c0-0.1,0-0.1,0.1-0.2v-0.1l0.2-0.1l0,0L69.2,28.5z M70.1,26.9L70.1,26.9
			c0.1,0.1,0.1,0.3,0.2,0.4h-0.1l-0.2,0.1H70l-0.1,0.1l0,0l0.1-0.3L70.1,26.9z M76.8,19.8L76.8,19.8v1.1l0,0
			c-0.2-0.1-0.5-0.1-0.7-0.1l-0.7,0.1h-0.2L75,21h-1.8L73,21h-0.2l-0.2,0.1l-0.4,0.1c-0.4,0.1-0.7,0.4-0.8,0.7
			c0,0.1-0.1,0.2-0.1,0.2l-0.1,0.2c0,0.1-0.1,0.3-0.1,0.4L71,23l0,0c0-0.1-0.1-0.2-0.1-0.2c-0.2-0.3-0.5-0.5-0.8-0.5h-0.2
			c-0.2,0-0.3,0-0.5,0.1h-0.1v-0.5l0.1-0.2v-0.2c0,0,0-0.1,0.1-0.1l0.1-0.1l0,0l0.1,0l0.1-0.1c0.6-0.2,1.1-0.5,1.7-0.6l0.2,0H72h0.3
			h0.2l0.6-0.1l0.4-0.1l0.6-0.1l0.6-0.1h1C76,19.9,76.4,19.9,76.8,19.8L76.8,19.8z"/>
		<path class="st4" d="M84.8,19.4h-0.6c-0.4,0-0.9,0.1-1.3,0.2c-0.5,0.1-1,0.3-1.4,0.6l-1.1,0.6L80.2,21c-0.1,0.1-0.1,0.2,0,0.2
			c0.1,0.1,0.2,0.2,0.3,0.2c0.2,0.1,0.5,0.2,0.7,0.3c0.1,0,0.1,0.1,0.1,0.1l0,0c0,0,0,0.1,0,0.1c0,0,0,0,0,0c-0.1,0-0.3,0-0.4-0.1
			c-0.2-0.1-0.3-0.1-0.5-0.1h-0.6c-0.1,0-0.3,0-0.4-0.1c-0.1,0-0.1-0.1-0.1-0.1c0-0.1,0-0.2,0-0.3v-0.6l0.1-0.5
			c0-0.4,0.1-0.8,0.1-1.2c0-0.4,0.2-0.7,0.6-0.9c1-0.7,2.1-1.2,3.2-1.3c0.8-0.1,1.6-0.2,2.5-0.2c0.4,0,0.9,0,1.3,0.1
			c0.5,0.1,0.8,0.4,0.9,0.9l0.4,1.5c0,0.2,0,0.5,0,0.7c-0.1,0.3-0.2,0.6-0.3,0.9c-0.7,1.6-1.4,3.1-2.1,4.7s-1.3,3.1-2,4.6
			c0,0.1-0.1,0.2-0.2,0.4c-0.1,0.2-0.1,0.4-0.1,0.6c0,0.3,0.3,0.4,0.5,0.4c0,0,0,0,0,0h0c0.1,0,0.2-0.1,0.3-0.1l0.6-0.5l0.2-0.1l0,0
			c-0.1,0.3-0.2,0.5-0.3,0.7c-0.2,0.3-0.4,0.6-0.6,0.9c-0.3,0.3-0.6,0.6-0.9,0.9c-0.2,0.2-0.4,0.4-0.6,0.5c-0.2,0.1-0.5,0.2-0.7,0.2
			c-0.3,0-0.6-0.2-0.8-0.4C81.1,33.2,81,33,81,32.8c0-0.3,0-0.5,0-0.8c0.1-0.3,0.2-0.6,0.3-0.8c0.9-2.2,1.8-4.5,2.7-6.7
			c0.6-1.5,1.2-3,1.8-4.4c0.1-0.2,0.1-0.3,0.2-0.5s0-0.2-0.1-0.2c-0.1,0-0.2-0.1-0.3,0L84.8,19.4L84.8,19.4z"/>
		<path class="st0" d="M85.4,15.4c-0.9,0-1.8,0.1-2.6,0.2c-1.3,0.2-2.5,0.8-3.6,1.6c-0.5,0.4-0.8,0.9-0.9,1.6v0.1l-0.1,1.3v1.1
			c0,0.2,0,0.4,0.1,0.6c0.1,0.3,0.3,0.6,0.6,0.7c0.3,0.1,0.5,0.2,0.8,0.2h0.7c0.1,0,0.1,0,0.2,0h0.3c0.2,0,0.4,0,0.6,0
			c0.6,0,1-0.5,0.9-1.1c0,0,0,0,0,0l0,0c0-0.1,0-0.1,0-0.2c0-0.2-0.1-0.3-0.2-0.4L82,21l0,0c0.4-0.2,0.8-0.4,1.2-0.5
			c0.3-0.1,0.6-0.1,0.9-0.2h0.7l-1.9,4.5l-0.4,1.1l-0.6,1.4l-0.4,1L81.2,29l-0.4,1l-0.3,0.6L80.4,31l-0.1,0.2l-0.1,0.2
			c-0.1,0.2-0.1,0.4-0.2,0.5c-0.1,0.4-0.1,0.7,0,1.1c0,0.3,0.2,0.7,0.3,1c0.3,0.5,0.9,0.8,1.5,0.9c0.4,0,0.9-0.1,1.3-0.3
			c0.3-0.2,0.6-0.4,0.9-0.7l0.2-0.2l0.2-0.2l0.2-0.2l0.1-0.1l0.1-0.1l0.1-0.1v-0.1c0.3-0.3,0.5-0.6,0.7-1c0.2-0.3,0.3-0.6,0.4-1
			c0.1-0.4,0-0.8-0.3-1l0,0c-0.3-0.2-0.7-0.3-1-0.2l0,0l1.6-3.5l1.1-2.6l0.3-0.6l0.3-0.8l0.3-0.7l0.2-0.5c0.2-0.4,0.3-0.8,0.3-1.1
			c0.1-0.4,0.1-0.7,0-1.1l-0.1-0.5l-0.2-1c-0.2-0.8-0.8-1.5-1.6-1.7h-0.1C86.4,15.4,85.9,15.4,85.4,15.4z M82.4,31.2L82.4,31.2
			c0.1,0.3,0.3,0.6,0.6,0.8h0.1l-0.2,0.2l-0.2,0.2c-0.1,0.1-0.3,0.2-0.4,0.3l0,0h-0.1l0,0c0,0,0-0.1,0-0.1c0-0.1,0-0.3,0-0.4V32l0,0
			v-0.2l0.1-0.1L82.4,31.2z M85.4,17.3c0.3,0,0.7,0,1,0.1h0.1c0.1,0,0.2,0,0.2,0.1l0.2,0.8l0.1,0.5V19l0,0c-0.1-0.3-0.4-0.5-0.6-0.6
			c-0.2-0.1-0.5-0.1-0.7-0.1l-1.5,0.1l0,0c-0.5,0-1.1,0.1-1.6,0.2c-0.5,0.2-1,0.4-1.5,0.6l-0.7,0.4l-0.3,0.2l0.1-0.8
			c0-0.1,0.1-0.2,0.1-0.2c0.8-0.6,1.8-1,2.8-1.2C83.9,17.4,84.7,17.3,85.4,17.3L85.4,17.3z"/>
		<path class="st4" d="M72.7,32c0-0.3,0.1-0.6,0.2-0.9c0.4-0.8,0.8-1.5,1.2-2.2c0.2-0.3,0.4-0.7,0.7-1c0.2-0.3,0.6-0.4,0.9-0.3
			c0.2,0,0.3,0.2,0.3,0.4c0,0.1,0,0.3-0.1,0.4l-0.1,0.2c-0.4,0.7-0.8,1.4-1.2,2.2c-0.1,0.2-0.2,0.5-0.3,0.8c-0.1,0.2-0.1,0.5,0,0.7
			c0.1,0.3,0.4,0.4,0.7,0.4c0,0,0,0,0,0H75c0.2-0.1,0.4-0.2,0.5-0.4c0.2-0.3,0.4-0.6,0.6-0.9l1.6-2.8c0.1-0.2,0.2-0.4,0.3-0.5
			c0.1-0.1,0.2-0.3,0.3-0.4c0-0.1,0.1-0.1,0.1-0.1c0.1-0.1,0.3-0.1,0.4,0c0.1,0.1,0.2,0.2,0.2,0.3c0,0.1,0,0.2-0.1,0.2
			c0,0.1-0.1,0.3-0.1,0.4l-0.4,1l-0.6,1.4c-0.1,0.3-0.2,0.7-0.3,1c0,0.2,0,0.4,0.1,0.6c0,0.1,0.1,0.1,0.2,0.2
			c0.1,0.1,0.2,0.1,0.3,0.1c0.4-0.1,0.7-0.3,1-0.5c0.4-0.3,0.8-0.7,1.3-1c0,0,0.1,0,0.1,0c0,0,0,0.1,0,0.1c0,0.1,0,0.2,0,0.2
			c-0.1,0.2-0.2,0.4-0.3,0.6c-0.4,0.5-0.9,1-1.4,1.4c-0.3,0.3-0.7,0.6-1.2,0.8c-0.1,0.1-0.2,0.1-0.3,0.1c-0.2,0-0.3,0-0.4-0.2
			c-0.1-0.1-0.1-0.2-0.2-0.4c-0.1-0.4-0.1-0.7,0-1.1c0-0.1,0-0.2,0-0.3c0-0.1,0-0.2-0.1-0.2c-0.1-0.1-0.2-0.1-0.3,0l0,0
			c-0.1,0.1-0.1,0.2-0.2,0.3l-0.3,0.8c-0.1,0.2-0.2,0.5-0.4,0.7c-0.3,0.3-0.7,0.5-1.1,0.4h-0.3c-0.3,0-0.6-0.2-0.9-0.4
			C72.8,33.4,72.6,32.7,72.7,32z"/>
		<path class="st0" d="M77.9,26.6c-0.1,0.1-0.2,0.2-0.3,0.3L77.5,27l-0.1,0.1l-0.1,0.1l-0.1,0.1l-0.1,0.1v0.1l-0.1,0.1v0.1L77,27.8
			v-0.1c-0.1-0.5-0.4-0.8-0.9-1c-0.8-0.3-1.6,0-2.1,0.6l-0.1,0.1l-0.5,0.7l-0.2,0.3l-0.1,0.2l-0.1,0.1L73,28.9l-0.1,0.2l-0.1,0.1
			l-0.1,0.1l-0.1,0.2l-0.2,0.4l-0.4,0.8l0,0c-0.2,0.4-0.4,0.8-0.4,1.3c0,0.9,0.3,1.9,0.9,2.6c0.3,0.4,0.8,0.6,1.3,0.8h0.6
			c0.6,0,1.2-0.2,1.7-0.6l0,0v0c0.3,0.4,0.8,0.6,1.3,0.5c0.2,0,0.4-0.1,0.6-0.2c0.5-0.2,1-0.5,1.4-0.9l0.1-0.1l0.1-0.1l0.1-0.1
			l0.1-0.1l0.1-0.1l0.1-0.1l0.2-0.2l0.1-0.1l0.3-0.3l0.3-0.3c0.3-0.3,0.4-0.6,0.5-1c0-0.1,0-0.2,0-0.3v-0.2c0-0.3-0.2-0.7-0.5-0.9
			c-0.4-0.2-0.8-0.1-1.1,0.1L79.2,31l-0.3,0.2l-0.2,0.2v-0.1l0.1-0.3l0.5-1.1c0.2-0.4,0.3-0.7,0.4-1c0.1-0.2,0.1-0.3,0.2-0.5
			c0.1-0.2,0.1-0.4,0.1-0.6c0-0.5-0.3-0.9-0.7-1.1h-0.1C78.8,26.4,78.3,26.4,77.9,26.6z"/>
		<path class="st4" d="M90,27.1c-0.1,0.2-0.1,0.4-0.2,0.5c-0.2,0.4-0.4,0.8-0.6,1.1c-0.1,0.2-0.2,0.4-0.4,0.6
			c-0.1,0.1-0.1,0.2-0.2,0.3c-0.1,0.1-0.3,0.2-0.5,0.2c-0.2,0-0.3-0.1-0.4-0.2c-0.2-0.2-0.2-0.4-0.2-0.6c0-0.4,0.2-0.8,0.4-1.1
			c0.2-0.3,0.4-0.6,0.6-0.9c0.2-0.2,0.4-0.4,0.6-0.6c0.1-0.1,0.3-0.2,0.4-0.2l0.2,0c0.2,0,0.3,0.1,0.4,0.3v0.1
			C90.1,26.7,90.1,26.9,90,27.1z M93.6,28.6c-0.3,0.4-0.7,0.7-1.1,1c-0.2,0.1-0.5,0.2-0.7,0.3c-0.1,0-0.2,0-0.3,0
			c-0.2,0-0.4-0.1-0.5-0.3c-0.1-0.1-0.1-0.2-0.1-0.3c0-0.2,0-0.4,0.1-0.6c0.1-0.3,0.1-0.5,0.2-0.8c0.2-0.5,0.4-1,0.5-1.5
			c0.1-0.2,0.1-0.4,0.2-0.6C92,25.5,92,25.3,92,25c0-0.2-0.1-0.4-0.2-0.5c-0.1-0.2-0.3-0.3-0.6-0.4c-0.3-0.1-0.6,0-0.9,0.1
			c-0.4,0.2-0.8,0.4-1.2,0.7c-0.6,0.4-1.1,0.9-1.6,1.5c-0.3,0.3-0.5,0.5-0.7,0.8c-0.3,0.5-0.6,1-0.7,1.6c-0.1,0.6-0.1,1.3,0.2,1.9
			c0.2,0.5,0.7,0.9,1.2,1.1c0.6,0.2,1.3,0,1.6-0.5c0.1-0.1,0.2-0.3,0.2-0.4c0.1-0.2,0.1-0.4,0.2-0.6s0.1-0.2,0.1-0.4
			c0-0.1,0.1-0.2,0.2-0.3c0.1-0.1,0.3-0.1,0.4,0c0,0,0,0,0.1,0.1c0,0.1,0,0.1,0,0.2c0,0.1,0,0.2,0,0.3c-0.1,0.4-0.1,0.8,0.1,1.1
			c0,0.2,0.3,0.4,0.5,0.3c0.2,0,0.5-0.1,0.7-0.2c0.4-0.2,0.7-0.5,1-0.8c0.4-0.4,0.7-0.9,1-1.4c0.1-0.2,0.2-0.3,0.2-0.5
			C93.8,28.6,93.8,28.6,93.6,28.6L93.6,28.6z"/>
		<path class="st0" d="M89.9,23.3c0.5-0.2,1-0.2,1.5-0.1c0.4,0.1,0.8,0.3,1.1,0.7c0.3,0.3,0.4,0.7,0.5,1.1c0,0.4,0,0.7-0.1,1.1v0.1
			l-0.2,0.4l-0.2,0.5L92.3,28l-0.1,0.3c0,0.1-0.1,0.3-0.1,0.4v0.2l0,0c0.3-0.2,0.5-0.3,0.7-0.6l0.1-0.1L93,28l0.2-0.2l0.3-0.1
			c0.3-0.1,0.7,0,1,0.2c0.3,0.2,0.4,0.6,0.3,1V29c0,0.2-0.1,0.4-0.2,0.5v0.1l-0.1,0.1c-0.3,0.5-0.6,1-1,1.5c-0.4,0.4-0.8,0.8-1.3,1
			c-0.3,0.2-0.7,0.3-1.1,0.3c-0.4,0.1-0.9-0.1-1.2-0.4v0l0,0c-0.6,0.7-1.6,0.9-2.4,0.6h-0.1c-0.8-0.3-1.4-0.9-1.7-1.6
			c-0.4-0.8-0.4-1.6-0.2-2.5c0.2-0.7,0.4-1.3,0.8-1.9c0.2-0.3,0.5-0.7,0.8-1c0.5-0.6,1.1-1.1,1.8-1.6c0.4-0.3,0.8-0.5,1.3-0.8
			L89.9,23.3z M87.8,30.8L87.8,30.8c0.2,0,0.3,0,0.4,0l0,0C88,30.9,87.9,30.9,87.8,30.8z M90.9,25.1c-0.1,0-0.2,0-0.3,0l-0.3,0.1
			c0.2,0.1,0.4,0.3,0.5,0.5l0.1-0.3C91,25.4,91,25.2,90.9,25.1L90.9,25.1L90.9,25.1z"/>
		<path class="st9" d="M77.8,20.7c0,0.4,0,0.8-0.1,1.2c0,0.1-0.1,0.2-0.2,0.3c-0.1,0.1-0.1,0.1-0.2,0.2c-0.3,0.2-0.6,0.4-0.9,0.6
			c0,0-0.1,0-0.1,0c0,0,0,0,0,0l0,0l-0.1-0.1 M76.3,22.8c0-0.2,0.1-0.3,0.2-0.5l0.2-0.2c0-0.1,0-0.2,0-0.2c0-0.1-0.1-0.2-0.2-0.2
			h-0.2c-1,0.1-1.9,0.2-2.8,0.5c-0.3,0.1-0.6,0.2-0.9,0.3c-0.1,0-0.2,0.1-0.2,0.2c0,0.1-0.1,0.2-0.1,0.3c-0.4,1.1-0.7,2.1-1,3.2
			c0,0.1-0.1,0.2-0.1,0.3c0,0.1,0.1,0.2,0.2,0.2h0.2l0.3-0.1c0.9-0.3,1.8-0.5,2.8-0.6c0.3,0,0.6,0,0.9,0c0.1,0,0.2,0.1,0.2,0.2
			c0,0.3-0.2,0.6-0.4,0.8c-0.2,0.1-0.4,0.2-0.6,0.2l-0.8,0.2c-0.5,0.1-1,0.2-1.4,0.4c-0.6,0.2-1.2,0.4-1.8,0.7
			c-0.1,0-0.2,0.1-0.3,0.3c-0.1,0.2-0.1,0.4-0.2,0.6l-1.1,3.1v0.1c-0.1,0.3-0.1,0.3,0.2,0.6c0.2,0.2,0.3,0.4,0.4,0.6
			c0.1,0.3,0.1,0.7,0,1c-0.1,0.5-0.3,0.9-0.6,1.3c-0.1,0.1-0.3,0.3-0.4,0.4c-0.5,0.3-1.2,0.3-1.7,0c-0.3-0.1-0.5-0.4-0.4-0.8
			c0-0.1,0-0.2,0.1-0.3c0.5-1.8,1.1-3.5,1.7-5.3v-0.1c0-0.1,0-0.2-0.1-0.2l-0.2-0.1c-0.1-0.1-0.2-0.2-0.2-0.3V29
			c0.1-0.3,0.2-0.7,0.4-1c0-0.1,0.1-0.1,0.2-0.2c0.1,0,0.2-0.1,0.3-0.1c0.1,0,0.2-0.2,0.3-0.3c0.1-0.3,0.2-0.6,0.3-0.9l0.8-2.3
			c0-0.1,0-0.2,0.1-0.3c0-0.1,0-0.2-0.1-0.3c0,0-0.1-0.1-0.1-0.1c-0.1,0-0.2,0-0.2,0c-0.1,0.1-0.2,0.1-0.4,0.2l-1,0.6h-0.1v0
			c0-0.6,0-1.2,0.1-1.8c0-0.3,0.1-0.6,0.1-0.9l0.1-0.4c0.1-0.3,0.3-0.6,0.5-0.8c0.2-0.1,0.3-0.2,0.5-0.3c0.6-0.3,1.3-0.5,1.9-0.7
			c0.4-0.1,0.8-0.2,1.3-0.3c0.7-0.1,1.4-0.2,2.1-0.3c0.3,0,0.6-0.1,0.9-0.1c0.6,0,1.2,0,1.7,0.1c0.1,0,0.2,0,0.2,0.1
			c0.1,0,0.1,0.1,0.2,0.2c0.1,0.2,0.1,0.3,0.1,0.5L76.3,22.8z"/>
		<path class="st13" d="M75.6,18.5h-0.8l-0.5,0.1l-0.6,0.1l-0.4,0.1l-0.5,0.1l-0.5,0.1L72,19h-0.5l-0.2,0c-0.7,0.2-1.4,0.4-2,0.7
			c-0.2,0.1-0.4,0.2-0.5,0.3c-0.3,0.2-0.6,0.5-0.7,0.9v0.4c-0.1,0.2-0.1,0.4-0.1,0.6v2.3l0,0c0,0.2,0.2,0.3,0.4,0.3c0,0,0,0,0,0
			c0,0,0.1,0,0.1,0l1-0.6l0,0l0.1-0.1h0.1c0,0.1,0,0.2-0.1,0.3l-1,2.8l-0.1,0.3c0,0.1-0.1,0.1-0.1,0.1l-0.3,0.1
			c-0.2,0.1-0.3,0.2-0.4,0.3c-0.2,0.4-0.3,0.7-0.4,1.1v0.1c0,0.2,0.1,0.4,0.3,0.6l0.1,0.1l0,0l-0.2,0.5l-0.2,0.6l-0.2,0.6l-0.2,0.8
			l-0.4,1.5L66,35.1c0,0.1-0.1,0.2-0.1,0.4c-0.1,0.4,0.2,0.9,0.6,1.1c0.6,0.4,1.4,0.3,2-0.1c0.2-0.1,0.3-0.3,0.5-0.4
			c0.3-0.4,0.6-0.9,0.7-1.4c0.1-0.4,0.1-0.8,0-1.2c-0.1-0.3-0.2-0.6-0.5-0.8L69,32.6v-0.2l0,0v-0.1l1.3-3.5v-0.1
			c0,0,0.1-0.1,0.1-0.1c0.7-0.3,1.3-0.5,2-0.6c0.5-0.1,0.9-0.2,1.3-0.3H74l0.5-0.1c0.2-0.1,0.5-0.1,0.7-0.2c0.4-0.2,0.6-0.6,0.6-1
			c0-0.3-0.2-0.5-0.5-0.5c-0.3,0-0.6,0-0.8,0l-0.3,0.1L73.4,26l-0.4,0.1l-0.2,0.1l-0.2,0l-0.3,0.1l-0.2,0h-0.2l-0.3,0.1h-0.2v-0.1
			l0.5-1.6l0.2-0.7l0.1-0.4c0-0.1,0.1-0.3,0.1-0.4l0.1-0.2c0-0.1,0-0.2,0.1-0.2l0,0l0.5-0.1l0.2-0.1h1.3l0.3,0h0.5l0.4-0.1h0.6
			l-0.1,0.1l0,0c-0.1,0.2-0.2,0.4-0.2,0.6v0.1C76,23.2,76,23.1,76,23v0.1c0,0.1,0.1,0.1,0.1,0.2c0.1,0.1,0.2,0.1,0.4,0.1
			c0.1,0,0.1-0.1,0.2-0.1c0.2-0.2,0.5-0.4,0.8-0.5l0.2-0.1h0.1l0.1-0.1c0.2-0.1,0.3-0.3,0.3-0.5V22l0.1-1.2v-1c0-0.2,0-0.4-0.1-0.6
			c-0.1-0.1-0.2-0.3-0.3-0.3l-0.2-0.1l0,0C76.8,18.5,76.2,18.5,75.6,18.5z M68,29.1L68,29.1c0.1-0.3,0.2-0.7,0.4-1h0.2l0.2-0.1l0,0
			c0.2-0.1,0.4-0.3,0.4-0.5l0.1-0.4l0.9-2.8c0-0.1,0-0.2,0.1-0.3c0-0.2,0-0.3-0.1-0.5c-0.1-0.1-0.2-0.2-0.3-0.2c-0.1,0-0.3,0-0.4,0
			h-0.1l-0.2,0.1l-0.7,0.4V22c0-0.1,0-0.3,0.1-0.4l0.1-0.2v-0.2c0-0.2,0.2-0.4,0.4-0.6l0.1-0.1l0.3-0.2c0.6-0.3,1.3-0.5,1.9-0.7h0.8
			l0.4-0.1l0.4-0.1l0.6-0.1l0.6-0.1l0.6-0.1h0.8c0.5,0,1,0,1.5,0.1h0.3c0,0.1,0.1,0.2,0.1,0.3v1.1l-0.1,1v0.3l-0.1,0.1l-0.1,0l0,0
			l-0.1,0.1l-0.2,0.1l-0.1,0.1l0,0c0.1-0.2,0.1-0.4,0-0.5c-0.1-0.2-0.3-0.3-0.5-0.3c-0.1,0-0.2,0-0.3,0l-0.5,0.1l-0.3,0h-1.8
			L73,21.8h-0.3L72.1,22c-0.2,0.1-0.3,0.2-0.4,0.3c0,0.1-0.1,0.2-0.1,0.3l-0.2,0.5l-0.1,0.4l-0.2,0.6l-0.6,1.8c0,0.1,0,0.2-0.1,0.3
			c0,0.3,0.2,0.6,0.5,0.6h0.5l0.4-0.1l0.2-0.1l0.3-0.1h0.2l0.3-0.1l0.4-0.1l0.8-0.2l0.3-0.1h0.1c0.2,0,0.4,0,0.6,0l0,0
			c0,0.2-0.1,0.3-0.3,0.4c-0.2,0.1-0.3,0.2-0.5,0.2l-0.5,0.1h-0.2c-0.3,0.1-0.7,0.1-1,0.2l-0.3,0.1H72c-0.6,0.2-1.2,0.4-1.9,0.7
			c-0.2,0.1-0.3,0.2-0.4,0.4l-0.1,0.2L68.3,32l0,0v0c-0.1,0.3-0.1,0.3,0,0.5c0,0,0.1,0.1,0.1,0.1v0h0.1l0.1,0.1
			c0.1,0.1,0.3,0.3,0.3,0.5c0.1,0.3,0.1,0.6,0,0.9c-0.1,0.4-0.3,0.8-0.6,1.2c-0.1,0.1-0.2,0.2-0.4,0.3c-0.4,0.3-1,0.3-1.4,0
			c-0.2-0.1-0.3-0.3-0.2-0.5c0-0.1,0-0.2,0.1-0.3l0.7-2.2l0.3-0.9l0.2-0.6l0.2-0.7l0.1-0.3l0.2-0.6c0-0.1,0-0.1,0-0.2
			c0-0.2,0-0.3-0.2-0.5l-0.1-0.1l0.2,0.4L68,29.1z"/>
		<path class="st9" d="M84.8,19.4h-0.6c-0.4,0-0.9,0.1-1.3,0.2c-0.5,0.1-1,0.3-1.4,0.6l-1.1,0.6L80.1,21c-0.1,0.1-0.1,0.2,0,0.2
			c0.1,0.1,0.2,0.2,0.3,0.2c0.2,0.1,0.4,0.2,0.6,0.3c0.1,0,0.1,0.1,0.1,0.1l0,0v0c-0.1,0-0.3,0-0.4-0.1c-0.2-0.1-0.3-0.1-0.5-0.1
			h-0.6c-0.1,0-0.3,0-0.4-0.1c-0.1,0-0.1-0.1-0.1-0.1c0-0.1,0-0.2,0-0.3v-0.6l0.1-0.5c0-0.4,0.1-0.8,0.1-1.2c0-0.4,0.2-0.7,0.5-0.9
			c0.9-0.7,2-1.1,3.2-1.3c0.8-0.1,1.6-0.2,2.5-0.2c0.4,0,0.9,0,1.3,0.1c0.5,0.1,0.8,0.4,0.9,0.9c0.1,0.5,0.2,1,0.4,1.5
			c0.1,0.2,0.1,0.5,0,0.7c-0.1,0.3-0.2,0.6-0.3,0.9c-0.7,1.6-1.4,3.1-2.1,4.7s-1.3,3.1-2,4.6c-0.1,0.1-0.1,0.2-0.2,0.4
			c-0.1,0.2-0.1,0.4-0.1,0.6c0,0.3,0.3,0.4,0.5,0.4c0,0,0,0,0,0h0c0.1,0,0.3-0.1,0.3-0.1l0.6-0.5l0.2-0.1l0,0
			c-0.1,0.3-0.2,0.5-0.3,0.7c-0.2,0.3-0.4,0.6-0.6,0.9c-0.3,0.3-0.6,0.6-0.9,0.9c-0.2,0.2-0.4,0.4-0.6,0.5c-0.2,0.1-0.5,0.2-0.7,0.2
			c-0.3,0-0.6-0.2-0.8-0.4c-0.1-0.2-0.2-0.3-0.2-0.5c0-0.3,0-0.5,0-0.8c0.1-0.3,0.2-0.6,0.3-0.8c0.9-2.2,1.8-4.5,2.7-6.7
			c0.7-1.5,1.3-2.9,2-4.4c0.1-0.2,0.1-0.3,0.2-0.5s0-0.2-0.1-0.2c-0.1,0-0.2-0.1-0.3,0L84.8,19.4L84.8,19.4z"/>
		<path class="st13" d="M85.4,16.7c0.4,0,0.8,0,1.2,0.1c0.4,0,0.6,0.3,0.7,0.7l0.2,0.9l0.1,0.5V19c0,0.2,0,0.4,0,0.6
			c-0.1,0.3-0.1,0.6-0.3,0.9l-0.2,0.4L87,21.4l-0.2,0.4l-0.3,0.7l-0.7,1.6l-1.2,2.7l-1.3,3.1l-0.1,0.1v0.1l0,0
			c-0.1,0.2-0.1,0.5-0.1,0.7c0,0.4,0.4,0.7,0.8,0.7c0,0,0,0,0,0h0.1h0.1c0.1,0,0.3-0.1,0.4-0.2l0,0c-0.2,0.2-0.3,0.4-0.5,0.7
			l-0.1,0.1l-0.2,0.2l-0.2,0.2l-0.2,0.2l-0.2,0.2c-0.2,0.2-0.4,0.3-0.6,0.5c-0.2,0.1-0.4,0.2-0.6,0.2c-0.2,0-0.4-0.1-0.5-0.3
			c-0.1-0.1-0.1-0.3-0.2-0.4c0-0.2,0-0.5,0-0.7V32l0.1-0.2v-0.1l0.1-0.1l0.1-0.2l0.4-1l0.4-1l0.4-1l0.3-0.7l0.6-1.4l0.6-1.4l2-4.9
			v-0.2l0.1-0.2c0.1-0.2-0.1-0.5-0.3-0.6C85.7,19,85.6,19,85.4,19h-1.5c-0.5,0-0.9,0.1-1.4,0.2c-0.5,0.1-0.9,0.3-1.4,0.6l-0.6,0.3
			L80,20.5l0,0l-0.2,0.1l-0.1,0.1c-0.2,0.2-0.2,0.5,0,0.7h-0.4c-0.1,0-0.1,0-0.2,0l0,0v-1.2l0.4-1.1l0,0c0-0.3,0.2-0.6,0.4-0.7
			c0.9-0.7,1.9-1.2,3-1.4C83.8,16.7,84.6,16.7,85.4,16.7z M81.5,21.9L81.5,21.9c0-0.1,0-0.1-0.1-0.2v0c0-0.1-0.1-0.1-0.2-0.1
			c-0.2-0.2-0.5-0.3-0.7-0.4l0,0l0.4-0.2l0.6-0.4l0.1-0.1c0.4-0.3,0.8-0.5,1.3-0.6c0.4-0.1,0.7-0.2,1.1-0.2h1.8l-0.1,0.2L85.7,20
			l-2.3,5.5l-0.4,1l-0.3,0.7l-0.4,1l-0.4,1l-0.4,1l-0.4,1l-0.1,0.2L81,31.6v0.1c0,0.1-0.1,0.3-0.1,0.4c-0.1,0.3-0.1,0.6,0,0.9
			c0,0.2,0.1,0.5,0.2,0.7c0.2,0.3,0.6,0.5,1,0.6c0.3,0,0.6-0.1,0.9-0.2c0.3-0.1,0.5-0.3,0.7-0.5l0.3-0.3l0.2-0.2l0.2-0.2l0.1-0.1
			l0.1-0.1c0.3-0.3,0.5-0.6,0.7-0.9c0.2-0.2,0.3-0.5,0.3-0.8c0-0.1,0-0.2-0.1-0.3c-0.1-0.1-0.2-0.1-0.3-0.1l0,0l-0.1,0.1h-0.1
			l-0.2,0.2l-0.4,0.3c-0.1,0-0.1,0.1-0.2,0.1c-0.1,0-0.2,0-0.2-0.1c0,0,0,0,0,0l0,0c0-0.2,0-0.3,0-0.5v-0.2l1.9-4.4l1-2.4l0.4-1
			l0.3-0.8l0.2-0.4l0.1-0.2l0.2-0.5c0.2-0.3,0.3-0.7,0.3-1c0.1-0.3,0.1-0.5,0-0.8l-0.2-0.6L88,17.3c-0.1-0.6-0.6-1-1.2-1.1
			C86.3,16,85.9,16,85.4,16c-0.8,0-1.7,0.1-2.5,0.2c-1.2,0.2-2.3,0.7-3.3,1.4c-0.4,0.3-0.6,0.7-0.7,1.1l-0.1,1.3v1.1
			c0,0.1,0,0.3,0.1,0.4c0,0.1,0.1,0.2,0.3,0.3c0.2,0.1,0.3,0.1,0.5,0.1h0.7c0.1,0,0.3,0,0.4,0.1c0.2,0.1,0.4,0.1,0.6,0.1
			C81.4,22.1,81.5,22,81.5,21.9z"/>
		<path class="st9" d="M72.7,32c0-0.3,0.1-0.6,0.2-0.9c0.4-0.8,0.8-1.5,1.2-2.2c0.2-0.3,0.4-0.7,0.7-1c0.2-0.3,0.6-0.4,0.9-0.3
			c0.2,0.1,0.3,0.2,0.3,0.4c0,0.1,0,0.3-0.1,0.4c0,0.1-0.1,0.2-0.1,0.2c-0.4,0.7-0.8,1.4-1.2,2.2c-0.1,0.2-0.2,0.5-0.3,0.8
			c-0.1,0.2-0.1,0.5,0,0.7c0.1,0.3,0.4,0.4,0.7,0.4c0,0,0,0,0,0l0.1,0c0.2-0.1,0.4-0.2,0.5-0.4c0.2-0.3,0.4-0.6,0.6-0.9l1.6-2.8
			c0.1-0.2,0.2-0.4,0.3-0.5c0.1-0.1,0.2-0.3,0.3-0.4c0,0,0.1-0.1,0.1-0.1c0.1-0.1,0.3-0.1,0.4,0c0.1,0.1,0.2,0.2,0.2,0.3
			c0,0.1,0,0.2,0,0.2c0,0.1-0.1,0.3-0.1,0.4l-0.4,1l-0.6,1.4c-0.1,0.3-0.2,0.7-0.3,1c0,0.2,0,0.4,0.1,0.6c0,0.1,0.1,0.1,0.2,0.2
			c0.1,0.1,0.2,0.1,0.3,0.1c0.4-0.1,0.7-0.3,1-0.5c0.4-0.3,0.8-0.7,1.3-1c0,0,0.1,0,0.1,0c0,0,0,0.1,0,0.1c0,0.1,0,0.2,0,0.2
			c-0.1,0.2-0.2,0.4-0.3,0.6c-0.4,0.5-0.9,1-1.4,1.4c-0.3,0.3-0.7,0.6-1.2,0.8c-0.1,0.1-0.2,0.1-0.3,0.1c-0.2,0-0.3,0-0.4-0.2
			c-0.1-0.1-0.1-0.2-0.2-0.4c-0.1-0.4-0.1-0.7,0-1.1c0-0.1,0-0.2,0-0.3c0-0.1,0-0.2-0.1-0.2c-0.1-0.1-0.2-0.1-0.3,0l0,0
			c-0.1,0.1-0.1,0.2-0.2,0.3c-0.1,0.3-0.2,0.5-0.3,0.8c-0.1,0.2-0.2,0.5-0.4,0.7c-0.3,0.3-0.7,0.5-1.1,0.4h-0.3
			c-0.3-0.1-0.6-0.2-0.8-0.5C72.9,33.4,72.6,32.7,72.7,32z"/>
		<path class="st13" d="M78.2,27.2c-0.1,0.1-0.1,0.1-0.2,0.2l-0.2,0.2l0,0l-0.1,0.1l0,0v0.1v0.1L77.6,28l-0.1,0.1l-0.1,0.2L76,30.9
			l-0.2,0.3v0.1v0.1l-0.1,0.1l-0.1,0.1l-0.1,0.1l-0.1,0.1L75.3,32c-0.1,0.1-0.2,0.2-0.3,0.3c-0.1,0.1-0.3,0-0.4-0.1c0,0,0,0,0,0
			c0-0.2,0-0.4,0-0.5c0.1-0.2,0.1-0.4,0.2-0.6l0.1-0.3l0.3-0.6l0.2-0.5l0.1-0.3l0.2-0.3l0.2-0.3l0.1-0.1l0.1-0.2v0
			c0.1-0.1,0.2-0.3,0.2-0.5c0-0.3-0.2-0.6-0.5-0.7c-0.5-0.2-1-0.1-1.3,0.4l-0.1,0.2L74,28.7l-0.1,0.2L73.7,29l-0.1,0.1l-0.1,0.1
			l-0.1,0.1l-0.1,0.1l-0.1,0.2l-0.1,0.2l-0.2,0.3l-0.3,0.7c0,0-0.1,0.1-0.1,0.1c-0.2,0.3-0.2,0.7-0.2,1c0,0.8,0.2,1.5,0.8,2.1
			c0.2,0.3,0.6,0.5,0.9,0.5l0.3,0h0.1c0.5,0.1,1-0.1,1.3-0.5c0.2-0.2,0.3-0.5,0.4-0.8l0.2-0.6l0.1-0.2l0,0v0.1c0,0.2,0,0.5,0,0.7
			v0.5c0,0.2,0.1,0.4,0.2,0.5c0.2,0.2,0.4,0.3,0.7,0.3c0.1,0,0.3-0.1,0.4-0.1c0.5-0.2,0.9-0.5,1.2-0.8l0.1-0.1l0.1-0.1l0.1-0.1
			l0.1-0.2l0.2-0.2l0.2-0.2l0.2-0.2l0.4-0.4c0.2-0.2,0.3-0.5,0.4-0.7c0-0.1,0-0.2,0-0.2v-0.1c0-0.1-0.1-0.3-0.2-0.3
			c-0.1-0.1-0.3-0.1-0.4,0l-0.8,0.6l-0.3,0.2L79,32c-0.3,0.2-0.6,0.4-0.9,0.5H78c0,0-0.1-0.1-0.1-0.1c-0.1-0.1-0.1-0.3-0.1-0.4
			c0-0.3,0.1-0.6,0.2-0.9l0.6-1.4l0.4-1c0.1-0.1,0.1-0.3,0.2-0.4c0-0.1,0-0.2,0-0.4c0-0.4-0.4-0.7-0.8-0.7
			C78.4,27.2,78.3,27.2,78.2,27.2L78.2,27.2z M78.7,27.7C78.7,27.7,78.7,27.7,78.7,27.7c0,0.1,0,0.2,0,0.3c0,0.1-0.1,0.2-0.1,0.4
			l-0.3,0.8L78,29.6l-0.4,0.9l-0.1,0.1c-0.2,0.4-0.3,0.7-0.3,1.1c0,0.3,0,0.6,0.2,0.8c0.1,0.1,0.1,0.2,0.2,0.2
			C77.8,33,78,33,78.2,33c0.4-0.1,0.8-0.3,1.1-0.6l0.2-0.2l0.2-0.2l0.3-0.2l0,0l-0.4,0.4l-0.2,0.2l-0.2,0.2l-0.1,0.2L79,33l-0.1,0.1
			l-0.1,0.1l-0.1,0.1l0,0c-0.3,0.3-0.7,0.5-1.1,0.7c-0.1,0-0.1,0.1-0.2,0.1c-0.1,0-0.1,0-0.2-0.1c-0.1-0.1-0.1-0.2-0.1-0.2v-0.4
			c0-0.2,0-0.3,0-0.5l0,0c0-0.1,0-0.2,0-0.4c0-0.2-0.1-0.3-0.2-0.5c-0.2-0.2-0.5-0.3-0.7-0.1c0,0,0,0,0,0c0,0-0.1,0-0.1,0.1
			c-0.1,0.1-0.1,0.2-0.2,0.3l-0.1,0.2l-0.2,0.6c-0.1,0.2-0.2,0.4-0.3,0.6c-0.2,0.2-0.5,0.4-0.8,0.3h-0.3c-0.3-0.1-0.5-0.2-0.7-0.4
			c-0.4-0.5-0.6-1.1-0.6-1.8c0-0.3,0.1-0.5,0.2-0.7l0.5-1l0.1-0.3l0.1-0.2l0.1-0.1l0.1-0.1l0.1-0.1l0.1-0.1l0.1-0.1l0.2-0.4l0.4-0.6
			l0.1-0.2v-0.1c0.1-0.2,0.4-0.3,0.6-0.2c0,0,0.1,0.1,0.1,0.1c0,0.1,0,0.1-0.1,0.2l0,0v0l-0.1,0.1v0l-0.1,0.2l-0.1,0.2l-0.1,0.1
			l-0.1,0.2L75,29.5L74.7,30l-0.3,0.6c-0.1,0.3-0.3,0.5-0.3,0.8c-0.1,0.3-0.1,0.6,0,0.8c0.1,0.4,0.6,0.7,1,0.6l0.2-0.1
			c0.2-0.1,0.4-0.2,0.6-0.4l0.1-0.1l0.2-0.2l0.1-0.2l0.1-0.1v0l0.1-0.1v0v-0.1l0.1-0.1l1-1.9l0.7-1.1l0.1-0.1l0.1-0.1v-0.1l0,0v-0.1
			l0,0V28l0.1-0.2l0.1-0.1C78.6,27.7,78.6,27.7,78.7,27.7z"/>
		<path class="st9" d="M90,27.1c-0.1,0.2-0.1,0.4-0.2,0.5c-0.2,0.4-0.4,0.8-0.6,1.1c-0.1,0.2-0.2,0.4-0.4,0.6
			c-0.1,0.1-0.1,0.2-0.2,0.3c-0.1,0.1-0.3,0.2-0.5,0.2c-0.2,0-0.3-0.1-0.4-0.2c-0.2-0.2-0.2-0.4-0.2-0.6c0-0.4,0.2-0.8,0.4-1.1
			c0.2-0.3,0.4-0.6,0.6-0.9c0.2-0.2,0.4-0.4,0.6-0.6c0.1-0.1,0.3-0.2,0.4-0.2l0.2,0c0.2,0,0.4,0.1,0.4,0.3v0.1
			C90.1,26.7,90.1,26.9,90,27.1z M93.6,28.6c-0.3,0.4-0.7,0.7-1.1,1c-0.2,0.1-0.5,0.2-0.7,0.3c-0.1,0-0.2,0-0.3,0
			c-0.2,0-0.4-0.1-0.5-0.3c-0.1-0.1-0.1-0.2-0.1-0.3c0-0.2,0-0.4,0-0.6c0.1-0.3,0.2-0.5,0.2-0.8c0.2-0.5,0.4-1,0.5-1.5l0.2-0.6
			c0.1-0.3,0.1-0.5,0.1-0.8c0-0.2-0.1-0.4-0.2-0.5c-0.1-0.2-0.3-0.3-0.6-0.4c-0.3-0.1-0.6,0-0.9,0.1c-0.4,0.2-0.8,0.4-1.2,0.7
			c-0.6,0.4-1.1,0.9-1.6,1.5c-0.3,0.3-0.5,0.5-0.7,0.8c-0.3,0.5-0.6,1-0.7,1.6c-0.1,0.6-0.1,1.3,0.2,1.9c0.2,0.5,0.7,0.9,1.2,1.1
			c0.6,0.2,1.3,0,1.6-0.5c0.1-0.1,0.2-0.3,0.2-0.4c0.1-0.2,0.1-0.4,0.2-0.6s0.1-0.2,0.1-0.4c0-0.1,0.1-0.2,0.2-0.3
			c0.1-0.1,0.3-0.1,0.4,0c0,0,0,0.1,0.1,0.1c0,0.1,0,0.1,0,0.2c0,0.1,0,0.2,0,0.3c-0.1,0.4-0.1,0.8,0.1,1.1c0,0.2,0.3,0.4,0.5,0.3
			c0.2,0,0.5-0.1,0.7-0.2c0.4-0.2,0.7-0.5,1-0.8c0.4-0.4,0.7-0.9,1-1.4C93.6,29.1,93.7,28.9,93.6,28.6
			C93.7,28.6,93.7,28.6,93.6,28.6L93.6,28.6z"/>
		<path class="st13" d="M90.2,24c0.3-0.1,0.7-0.2,1.1-0.1c0.5,0.1,1,0.6,1,1.2c0,0.3,0,0.6-0.1,0.8V26L92,26.5l-0.5,1.3l-0.1,0.3
			c-0.1,0.2-0.2,0.5-0.2,0.8c0,0.2,0,0.3,0,0.5c0,0.1,0,0.1,0.1,0.2c0.1,0.1,0.2,0.2,0.3,0.1h0.2c0.2-0.1,0.4-0.1,0.6-0.3
			c0.4-0.2,0.7-0.5,1-0.8l0.1-0.1l0.1-0.1h0.1c0.3-0.1,0.6,0.1,0.5,0.4c0,0.2-0.1,0.3-0.2,0.4l-0.1,0.2c-0.3,0.5-0.6,1-1,1.4
			c-0.3,0.4-0.7,0.7-1.1,0.9c-0.3,0.1-0.5,0.2-0.8,0.2c-0.4,0-0.7-0.2-0.8-0.5c-0.1-0.4-0.2-0.8-0.1-1.2v-0.1c0-0.1,0-0.1,0-0.2v0
			l0,0v0l0,0v0.1l-0.1,0.3l-0.1,0.4v0.3l0,0c-0.1,0.2-0.1,0.3-0.2,0.5c-0.4,0.7-1.3,0.9-2,0.6c-0.7-0.2-1.3-0.6-1.6-1.3
			c-0.3-0.6-0.3-1.3-0.2-2c0.1-0.6,0.4-1.2,0.7-1.7c0.2-0.3,0.5-0.6,0.7-0.9c0.5-0.5,1.1-1,1.7-1.5C89.3,24.5,89.7,24.2,90.2,24z
			 M91.2,24.5c-0.2,0-0.5,0-0.7,0.1c-0.4,0.2-0.8,0.4-1.1,0.6c-0.6,0.4-1.1,0.9-1.6,1.4c-0.2,0.3-0.5,0.5-0.7,0.8
			c-0.3,0.4-0.5,0.9-0.6,1.5c-0.1,0.6-0.1,1.1,0.2,1.7c0.2,0.5,0.6,0.8,1.1,1c0.5,0.2,1,0,1.3-0.4c0.1-0.1,0.1-0.2,0.2-0.4v-0.1
			l0.1-0.2l0.1-0.4l0.1-0.2v-0.1l0,0c0-0.1,0.1-0.3,0.2-0.4c0.2-0.2,0.6-0.2,0.8,0c0.1,0.1,0.1,0.1,0.1,0.2c0,0.1,0,0.2,0,0.3v0.3
			c-0.1,0.3,0,0.7,0.1,1c0,0.1,0.1,0.1,0.2,0.1h0.1c0.2,0,0.4-0.1,0.6-0.2c0.3-0.2,0.7-0.4,0.9-0.7c0.1-0.2,0.3-0.3,0.4-0.5l0.1-0.2
			l0.1-0.1l-0.1,0.1l-0.1,0.1c-0.2,0.2-0.5,0.3-0.8,0.3h-0.3c-0.3,0-0.6-0.2-0.8-0.4c-0.1-0.1-0.1-0.3-0.2-0.4c0-0.3,0-0.5,0.1-0.8
			c0.1-0.3,0.1-0.5,0.2-0.7l0.1-0.1l0.1-0.5l0.3-0.8l0.1-0.3l0.1-0.4c0-0.2,0-0.4,0-0.7c0-0.3-0.2-0.6-0.6-0.6L91.2,24.5z
			 M89.8,25.9L89.8,25.9c0.3,0,0.5,0.2,0.6,0.5v0.2c0,0.2,0,0.4-0.1,0.7c-0.1,0.2-0.1,0.4-0.2,0.6l-0.1,0.3l-0.1,0.1l-0.1,0.3
			l-0.1,0.2l-0.1,0.1L89.4,29l-0.1,0.1v0.1l-0.1,0.1l-0.1,0.2l-0.1,0.1c-0.1,0.1-0.2,0.2-0.3,0.3c-0.2,0.2-0.4,0.3-0.7,0.3
			c-0.2,0-0.5-0.1-0.6-0.3c-0.2-0.3-0.3-0.6-0.3-0.9c0-0.4,0.2-0.9,0.4-1.2c0.2-0.3,0.4-0.6,0.6-0.9c0.2-0.2,0.4-0.5,0.6-0.6
			c0.1-0.1,0.3-0.2,0.5-0.3c0.1,0,0.2,0,0.2-0.1L89.8,25.9L89.8,25.9z M89.8,26.5L89.8,26.5c-0.2,0-0.3,0.1-0.4,0.2
			c-0.2,0.2-0.4,0.4-0.6,0.6c-0.2,0.3-0.4,0.5-0.6,0.8c-0.2,0.3-0.3,0.6-0.3,1c0,0.2,0,0.3,0.1,0.4c0,0,0.1,0.1,0.2,0.1
			c0.1,0,0.2,0,0.3-0.1c0.1-0.1,0.1-0.1,0.2-0.2l0.1-0.2l0.1-0.1l0.1-0.1v-0.1l0,0l0.2-0.4l0.1-0.2c0,0,0-0.1,0.1-0.1l0.2-0.4
			c0.1-0.2,0.1-0.3,0.2-0.5v-0.1C89.7,26.8,89.7,26.7,89.8,26.5L89.8,26.5L89.8,26.5L89.8,26.5z"/>
		<path class="st14" d="M102.4,19v14.9h3.4v-6.2h5.4v-2.8h-5.5v-3.2h6.9v6.9c-0.1,2.1,1.1,4,2.9,5c0.8,0.3,1.6,0.4,2.4,0.4
			c1.3,0,2.1,0,2.8-0.1c2.1-0.3,3.7-1.9,3.8-4c0.1-1.1,0.1-6.7,0.1-6.7l-3-2.7v9.1c-0.2,1.6-3.1,3-5.2,0.9c-0.4-0.6-0.7-1.4-0.6-2.1
			V19H102.4z"/>
		<path class="st14" d="M122.2,19h12.6v2.7h-4.2v12.2h-3.3V21.7h-2L122.2,19z"/>
		<path class="st14" d="M136,28.3l2.2-5.8l2,5.8L136,28.3z M139.9,19h-3.4l-5.3,14.9h2.9l1.2-3.4h5.5l1.2,3.4h3.1L139.9,19z"/>
		<path class="st15" d="M152.1,26.8v5h4.1c0.8,0.1,1.6-0.2,2.3-0.7c0.5-0.5,0.8-1.2,0.8-1.9c0.1-0.8-0.3-1.6-1.1-2
			c-0.7-0.3-1.5-0.5-2.3-0.5L152.1,26.8z M152.1,20.8v4.4h3.5c0.8,0.1,1.5-0.1,2.2-0.5c0.6-0.4,0.9-1.1,0.8-1.8
			c0-0.6-0.2-1.2-0.7-1.6c-0.7-0.4-1.5-0.6-2.3-0.6L152.1,20.8z M150.1,33.5V19.2h6.3c1.1,0,2.2,0.3,3,1c0.7,0.7,1,1.6,1,2.5
			c0,0.5-0.1,1.1-0.4,1.6c-0.4,0.6-0.9,1.1-1.6,1.4c0.6,0.2,1.2,0.6,1.6,1c0.7,0.7,1,1.6,1,2.5c0,1.1-0.4,2.2-1.2,3
			c-1,0.9-2.3,1.3-3.6,1.3L150.1,33.5z"/>
		<path class="st16" d="M152.1,26.8v5h4.1c0.8,0.1,1.6-0.2,2.3-0.7c0.5-0.5,0.8-1.2,0.8-1.9c0.1-0.8-0.3-1.6-1.1-2
			c-0.7-0.3-1.5-0.5-2.3-0.5L152.1,26.8z M152.1,20.8v4.4h3.5c0.8,0.1,1.5-0.1,2.2-0.5c0.6-0.4,0.9-1.1,0.8-1.8
			c0-0.6-0.2-1.2-0.7-1.6c-0.7-0.4-1.5-0.6-2.3-0.6L152.1,20.8z M150.1,33.5V19.2h6.3c1.1,0,2.2,0.3,3,1c0.7,0.7,1,1.6,1,2.5
			c0,0.5-0.1,1.1-0.4,1.6c-0.4,0.6-0.9,1.1-1.6,1.4c0.6,0.2,1.2,0.6,1.6,1c0.7,0.7,1,1.6,1,2.5c0,1.1-0.4,2.2-1.2,3
			c-1,0.9-2.3,1.3-3.6,1.3L150.1,33.5z"/>
		<path class="st15" d="M172.6,33.5h-1.7V32h-0.1c-0.3,0.6-0.8,1.1-1.3,1.4c-0.6,0.3-1.3,0.5-2,0.5c-0.8,0-1.6-0.2-2.2-0.7
			c-0.8-0.6-1.2-1.6-1.1-2.6V23h1.8v7c-0.1,0.6,0.1,1.3,0.6,1.8c0.4,0.4,0.9,0.5,1.4,0.5c0.9,0,1.8-0.4,2.3-1.2
			c0.4-0.7,0.6-1.5,0.6-2.3V23h1.8L172.6,33.5z"/>
		<path class="st16" d="M172.6,33.5h-1.7V32h-0.1c-0.3,0.6-0.8,1.1-1.3,1.4c-0.6,0.3-1.3,0.5-2,0.5c-0.8,0-1.6-0.2-2.2-0.7
			c-0.8-0.6-1.2-1.6-1.1-2.6V23h1.8v7c-0.1,0.6,0.1,1.3,0.6,1.8c0.4,0.4,0.9,0.5,1.4,0.5c0.9,0,1.8-0.4,2.3-1.2
			c0.4-0.7,0.6-1.5,0.6-2.3V23h1.8L172.6,33.5z"/>
		<path class="st15" d="M183.5,26h-1.7c0-0.4-0.1-0.8-0.4-1.1c-0.6-0.5-1.3-0.7-2.1-0.6c-0.5,0-1.1,0.1-1.5,0.4
			c-0.4,0.2-0.6,0.6-0.6,1.1c0,0.4,0.1,0.7,0.4,0.9c0.5,0.2,1,0.4,1.5,0.5l1.8,0.4c0.8,0.1,1.6,0.5,2.2,1c0.5,0.5,0.7,1.1,0.7,1.7
			c0,1-0.4,1.9-1.1,2.5c-0.9,0.7-1.9,1-3,0.9c-1.8,0-3.1-0.5-3.8-1.4c-0.5-0.7-0.7-1.5-0.7-2.3h1.7c-0.1,0.7,0.2,1.3,0.8,1.7
			c1.2,0.6,2.5,0.6,3.7,0.1c0.5-0.3,0.7-0.7,0.7-1.3c0-0.4-0.1-0.7-0.4-0.9c-0.5-0.3-1.1-0.5-1.6-0.6l-2-0.5
			c-0.6-0.1-1.2-0.4-1.7-0.9c-0.4-0.4-0.7-1.1-0.7-1.7c0-1,0.4-1.9,1.2-2.5c0.8-0.6,1.8-0.8,2.8-0.8c1.1-0.1,2.1,0.3,2.9,0.9
			C183.1,24.2,183.5,25.1,183.5,26z"/>
		<path class="st16" d="M183.5,26h-1.7c0-0.4-0.1-0.8-0.4-1.1c-0.6-0.5-1.3-0.7-2.1-0.6c-0.5,0-1.1,0.1-1.5,0.4
			c-0.4,0.2-0.6,0.6-0.6,1.1c0,0.4,0.1,0.7,0.4,0.9c0.5,0.2,1,0.4,1.5,0.5l1.8,0.4c0.8,0.1,1.6,0.5,2.2,1c0.5,0.5,0.7,1.1,0.7,1.7
			c0,1-0.4,1.9-1.1,2.5c-0.9,0.7-1.9,1-3,0.9c-1.8,0-3.1-0.5-3.8-1.4c-0.5-0.7-0.7-1.5-0.7-2.3h1.7c-0.1,0.7,0.2,1.3,0.8,1.7
			c1.2,0.6,2.5,0.6,3.7,0.1c0.5-0.3,0.7-0.7,0.7-1.3c0-0.4-0.1-0.7-0.4-0.9c-0.5-0.3-1.1-0.5-1.6-0.6l-2-0.5
			c-0.6-0.1-1.2-0.4-1.7-0.9c-0.4-0.4-0.7-1.1-0.7-1.7c0-1,0.4-1.9,1.2-2.5c0.8-0.6,1.8-0.8,2.8-0.8c1.1-0.1,2.1,0.3,2.9,0.9
			C183.1,24.2,183.5,25.1,183.5,26z"/>
		<path class="st15" d="M191.8,19.1v12.6h7.3v1.7h-9.2V19.1H191.8z"/>
		<path class="st16" d="M191.8,19.1v12.6h7.3v1.7h-9.2V19.1H191.8z"/>
		<path class="st15" d="M201.4,33.5h1.8V23h-1.8V33.5z M201.4,21.1h1.8v-2h-1.8V21.1z"/>
		<path class="st16" d="M201.4,33.5h1.8V23h-1.8V33.5z M201.4,21.1h1.8v-2h-1.8V21.1z"/>
		<path class="st15" d="M214.6,26.4v7.1h-1.8v-6.4c0.1-0.7-0.1-1.4-0.4-2.1c-0.4-0.5-1.1-0.8-1.8-0.7c-0.6,0-1.3,0.2-1.7,0.7
			c-0.7,0.7-1.1,1.8-1,2.8v5.7h-1.8V23h1.6v1.5c0.3-0.4,0.7-0.8,1.1-1.1c0.6-0.4,1.4-0.7,2.1-0.7c0.9,0,1.7,0.2,2.5,0.7
			C214.3,24.1,214.7,25.3,214.6,26.4z"/>
		<path class="st16" d="M214.6,26.4v7.1h-1.8v-6.4c0.1-0.7-0.1-1.4-0.4-2.1c-0.4-0.5-1.1-0.8-1.8-0.7c-0.6,0-1.3,0.2-1.7,0.7
			c-0.7,0.7-1.1,1.8-1,2.8v5.7h-1.8V23h1.6v1.5c0.3-0.4,0.7-0.8,1.1-1.1c0.6-0.4,1.4-0.7,2.1-0.7c0.9,0,1.7,0.2,2.5,0.7
			C214.3,24.1,214.7,25.3,214.6,26.4z"/>
		<path class="st15" d="M219.2,27.4h5.8c0-0.8-0.2-1.5-0.7-2.2c-1.1-1.2-2.9-1.3-4.1-0.2c0,0,0,0,0,0c-0.1,0-0.1,0.1-0.2,0.2
			C219.5,25.9,219.2,26.6,219.2,27.4z M224.9,30.2h1.8c-0.1,0.4-0.2,0.9-0.5,1.3c-0.3,0.6-0.8,1.2-1.4,1.6c-0.3,0.2-0.6,0.4-1,0.5
			c-0.6,0.2-1.2,0.3-1.9,0.3c-1.3,0.1-2.6-0.5-3.4-1.5c-0.9-1.1-1.3-2.4-1.3-3.8c-0.1-1.5,0.3-2.9,1.2-4.1c0.9-1.1,2.4-1.8,3.8-1.7
			c1.3-0.1,2.6,0.5,3.3,1.6c0.8,1.3,1.2,2.9,1.1,4.5h-7.6c-0.1,0.9,0.2,1.8,0.8,2.5c1.2,1.1,3,1.2,4.2,0.2
			C224.5,31.2,224.8,30.7,224.9,30.2z"/>
		<path class="st16" d="M219.2,27.4h5.8c0-0.8-0.2-1.5-0.7-2.2c-1.1-1.2-2.9-1.3-4.1-0.2c0,0,0,0,0,0c-0.1,0-0.1,0.1-0.2,0.2
			C219.5,25.9,219.2,26.6,219.2,27.4z M224.9,30.2h1.8c-0.1,0.4-0.2,0.9-0.5,1.3c-0.3,0.6-0.8,1.2-1.4,1.6c-0.3,0.2-0.6,0.4-1,0.5
			c-0.6,0.2-1.2,0.3-1.9,0.3c-1.3,0.1-2.6-0.5-3.4-1.5c-0.9-1.1-1.3-2.4-1.3-3.8c-0.1-1.5,0.3-2.9,1.2-4.1c0.9-1.1,2.4-1.8,3.8-1.7
			c1.3-0.1,2.6,0.5,3.3,1.6c0.8,1.3,1.2,2.9,1.1,4.5h-7.6c-0.1,0.9,0.2,1.8,0.8,2.5c1.2,1.1,3,1.2,4.2,0.2
			C224.5,31.2,224.8,30.7,224.9,30.2z"/>
		<path class="st15" d="M237.1,26h-1.7c0-0.4-0.1-0.8-0.4-1.1c-0.6-0.5-1.3-0.7-2.1-0.6c-0.5,0-1.1,0.1-1.5,0.4
			c-0.4,0.2-0.6,0.6-0.6,1.1c0,0.3,0.1,0.7,0.4,0.9c0.5,0.2,1,0.4,1.5,0.5l1.8,0.4c0.8,0.1,1.6,0.5,2.3,1c0.5,0.5,0.7,1.1,0.7,1.7
			c0,1-0.4,1.9-1.1,2.5c-0.9,0.7-1.9,1-3,0.9c-1.8,0-3.1-0.5-3.8-1.4c-0.5-0.7-0.7-1.5-0.7-2.3h1.7c0,0.7,0.2,1.3,0.8,1.7
			c0.6,0.3,1.3,0.5,2,0.5c0.6,0,1.2-0.1,1.7-0.4c0.5-0.3,0.7-0.7,0.7-1.3c0-0.4-0.1-0.7-0.4-0.9c-0.5-0.3-1.1-0.5-1.6-0.6l-2-0.5
			c-0.6-0.1-1.2-0.4-1.7-0.9c-0.4-0.4-0.7-1.1-0.7-1.7c0-1,0.4-1.9,1.2-2.5c0.8-0.6,1.8-0.8,2.8-0.8c1.1-0.1,2.1,0.3,2.9,0.9
			C236.8,24.2,237.2,25.1,237.1,26z"/>
		<path class="st16" d="M237.1,26h-1.7c0-0.4-0.1-0.8-0.4-1.1c-0.6-0.5-1.3-0.7-2.1-0.6c-0.5,0-1.1,0.1-1.5,0.4
			c-0.4,0.2-0.6,0.6-0.6,1.1c0,0.3,0.1,0.7,0.4,0.9c0.5,0.2,1,0.4,1.5,0.5l1.8,0.4c0.8,0.1,1.6,0.5,2.3,1c0.5,0.5,0.7,1.1,0.7,1.7
			c0,1-0.4,1.9-1.1,2.5c-0.9,0.7-1.9,1-3,0.9c-1.8,0-3.1-0.5-3.8-1.4c-0.5-0.7-0.7-1.5-0.7-2.3h1.7c0,0.7,0.2,1.3,0.8,1.7
			c0.6,0.3,1.3,0.5,2,0.5c0.6,0,1.2-0.1,1.7-0.4c0.5-0.3,0.7-0.7,0.7-1.3c0-0.4-0.1-0.7-0.4-0.9c-0.5-0.3-1.1-0.5-1.6-0.6l-2-0.5
			c-0.6-0.1-1.2-0.4-1.7-0.9c-0.4-0.4-0.7-1.1-0.7-1.7c0-1,0.4-1.9,1.2-2.5c0.8-0.6,1.8-0.8,2.8-0.8c1.1-0.1,2.1,0.3,2.9,0.9
			C236.8,24.2,237.2,25.1,237.1,26z"/>
		<path class="st17" d="M114.8,49.2c-0.6,0.2-1.2,0.3-1.8,0.3c-1.8,0.2-3.4-1.1-3.6-3c0,0,0,0,0,0c0-0.2,0-0.4,0-0.5
			c-0.1-2,1.4-3.6,3.4-3.7h0.4c0.6,0,1.2,0.1,1.7,0.3l-0.3,1.2c-0.4-0.2-0.9-0.3-1.3-0.2c-1.3,0.1-2.2,1.2-2.1,2.4
			c0.1,1.1,1,2,2.1,2.1c0.4,0,0.9-0.1,1.3-0.2L114.8,49.2z"/>
		<path class="st17" d="M117.4,42.5v2.7h2.6v-2.7h1.6v6.9H120v-2.9h-2.6v2.9h-1.6v-6.9H117.4z"/>
		<path class="st17" d="M128.7,40l-1.4,1.2h-0.8l0.8-1.2H128.7z M126.3,46.5l-0.4-1.5c-0.1-0.4-0.2-0.9-0.3-1.3l0,0
			c-0.1,0.4-0.2,0.9-0.3,1.3l-0.4,1.5L126.3,46.5z M126.2,40.8l0.9,1.3h-1l-0.5-0.7l0,0l-0.5,0.7h-1l0.9-1.3H126.2z M124.6,47.6
			l-0.5,1.8h-1.6l2.1-6.9h2.1l2.1,6.9h-1.7l-0.5-1.8L124.6,47.6z"/>
		<path class="st17" d="M130.2,43.8h-1.9v-1.3h5.3v1.3h-1.9v5.6h-1.6L130.2,43.8z"/>
		<path class="st17" d="M136.5,42.5h1.6v5.6h2.8v1.3h-4.3V42.5z"/>
		<path class="st17" d="M148.2,41.2c0.2,0.3,0.2,0.7,0.2,1c0,0.6-0.4,1.1-1,1.1h-0.3v3c0,2.1-1.1,3.2-2.9,3.2s-2.8-1-2.8-3.2v-3.8
			h1.5v4c0,1.2,0.4,1.8,1.2,1.8s1.3-0.6,1.3-1.8v-4h1.2c0.4,0,0.5-0.1,0.5-0.4c0-0.2-0.1-0.5-0.2-0.7L148.2,41.2z"/>
		<path class="st17" d="M151.2,50.9c0-0.4,0.3-0.7,0.7-0.7l0,0l0,0c0.4,0,0.7,0.3,0.7,0.7c0,0,0,0,0,0l0,0c0,0.4-0.3,0.7-0.7,0.7
			C151.6,51.6,151.3,51.3,151.2,50.9z M153.6,45.9c0-1.2-0.6-2.3-1.7-2.3s-1.7,1-1.7,2.3s0.6,2.3,1.7,2.3S153.6,47.3,153.6,45.9
			L153.6,45.9z M155.5,41.6c0.2,0.3,0.2,0.7,0.2,1c0.1,0.5-0.3,1-0.9,1.1c-0.1,0-0.1,0-0.2,0c0.4,0.6,0.6,1.4,0.6,2.1
			c0,2.3-1.4,3.7-3.4,3.7c-1.8,0-3.2-1.4-3.3-3.2c0-0.1,0-0.2,0-0.3c-0.2-1.8,1.2-3.4,3-3.6h0.4c0.4,0,0.9,0.1,1.3,0.2
			c0.3,0.2,0.7,0.3,1,0.4c0.3,0,0.4-0.1,0.4-0.4c0-0.3-0.1-0.5-0.2-0.8L155.5,41.6z"/>
		<path class="st17" d="M156.3,49.4v-6.9h1.8l1.4,2.5c0.4,0.8,0.8,1.6,1.1,2.4l0,0c-0.1-1-0.1-1.9-0.1-2.9v-2h1.4v6.9h-1.6l-1.5-2.7
			c-0.4-0.8-0.8-1.6-1.2-2.5l0,0c0,0.9,0.1,1.9,0.1,3v2.1H156.3z"/>
		<path class="st17" d="M169.2,49.1c-0.7,0.2-1.5,0.4-2.3,0.4c-1,0.1-2-0.3-2.8-0.9c-0.7-0.7-1.1-1.6-1-2.5c0-2.3,1.7-3.6,4-3.6
			c0.7,0,1.3,0.1,1.9,0.3l-0.3,1.3c-0.5-0.2-1.1-0.3-1.6-0.3c-1.2,0-2.2,1.1-2.2,2.3c0,1.1,0.9,2.1,2.1,2.2c0.3,0,0.5,0,0.8-0.1
			v-1.4h-1.1v-1.2h2.6V49.1z"/>
		<path class="st17" d="M172.5,42.5h1.5v5.6h2.8v1.3h-4.3L172.5,42.5z"/>
		<path class="st17" d="M181.1,46.5l-0.4-1.5c-0.1-0.4-0.2-0.9-0.4-1.3l0,0c-0.1,0.4-0.2,0.9-0.3,1.3l-0.4,1.5L181.1,46.5z
			 M180.3,40.8l0.9,1.2h-1.2l-1.3-1.2H180.3z M179.4,47.6l-0.5,1.8h-1.6l2.1-6.9h2.1l2.1,6.9h-1.7l-0.5-1.8L179.4,47.6z"/>
		<path class="st17" d="M188.1,48.2c0.2,0,0.4,0,0.5,0c1.2,0.1,2.2-0.8,2.3-2c0,0,0,0,0,0c0-0.1,0-0.3,0-0.4
			c0.1-1.1-0.7-2.1-1.8-2.2c0,0,0,0,0,0c-0.1,0-0.3,0-0.4,0c-0.2,0-0.5,0-0.7,0.1L188.1,48.2z M186.6,42.6c0.7-0.1,1.4-0.2,2.1-0.2
			c1-0.1,2,0.2,2.8,0.7c0.8,0.6,1.2,1.6,1.2,2.6c0.1,1.1-0.4,2.1-1.1,2.8c-0.9,0.7-2.1,1-3.2,0.9c-0.6,0-1.2,0-1.8-0.1V42.6z"/>
		<path class="st17" d="M196.9,46.5l-0.4-1.5c-0.1-0.4-0.2-0.9-0.4-1.3l0,0c-0.1,0.4-0.2,0.9-0.3,1.3l-0.4,1.5L196.9,46.5z
			 M195.2,47.6l-0.5,1.8h-1.6l2.1-6.9h2.1l2.1,6.9h-1.7l-0.5-1.8L195.2,47.6z"/>
		<path class="st17" d="M200.3,49.4v-6.9h1.8l1.4,2.5c0.4,0.8,0.8,1.6,1.1,2.4l0,0c-0.1-1-0.1-1.9-0.1-2.9v-2h1.4v6.9h-1.6l-1.5-2.7
			c-0.4-0.8-0.8-1.6-1.2-2.5l0,0c0,0.9,0.1,1.9,0.1,3v2.1H200.3z"/>
		<path class="st17" d="M209,42.5v2.7h2.6v-2.7h1.6v6.9h-1.6v-2.9H209v2.9h-1.6v-6.9H209z"/>
		<path class="st17" d="M218.1,48.2c0.2,0,0.4,0,0.5,0c1.2,0.1,2.2-0.7,2.4-1.9c0.1-1.2-0.6-2.3-1.8-2.7c-0.1,0-0.3,0-0.4,0
			c-0.2,0-0.5,0-0.7,0.1L218.1,48.2z M216.5,42.6c0.7-0.1,1.4-0.2,2.1-0.2c1-0.1,2,0.2,2.8,0.7c0.8,0.6,1.2,1.6,1.2,2.6
			c0.1,1.1-0.4,2.1-1.1,2.8c-0.9,0.7-2.1,1-3.2,0.9c-0.6,0-1.2,0-1.8-0.1V42.6z"/>
		<path class="st17" d="M225.8,50.9c0-0.4,0.3-0.7,0.7-0.7l0,0l0,0c0.4,0,0.7,0.3,0.7,0.7l0,0l0,0c0,0.4-0.4,0.7-0.8,0.6
			C226.1,51.5,225.9,51.2,225.8,50.9L225.8,50.9z M230.4,41.2c0.1,0.3,0.2,0.7,0.2,1c0,0.6-0.4,1.1-1,1.1h-0.2v3
			c0,2.1-1.1,3.2-2.9,3.2s-2.8-1-2.8-3.2v-3.8h1.6v4c0,1.2,0.4,1.8,1.2,1.8s1.3-0.6,1.3-1.8v-4h1.2c0.4,0,0.5-0.1,0.5-0.4
			c0-0.2-0.1-0.5-0.2-0.7L230.4,41.2z"/>
		<path class="st18" d="M114.8,49.2c-0.6,0.2-1.2,0.3-1.8,0.3c-1.8,0.2-3.4-1.1-3.6-3c0,0,0,0,0,0c0-0.2,0-0.4,0-0.5
			c-0.1-2,1.4-3.6,3.4-3.7h0.4c0.6,0,1.2,0.1,1.7,0.3l-0.3,1.2c-0.4-0.2-0.9-0.3-1.3-0.2c-1.3,0.1-2.2,1.2-2.1,2.4
			c0.1,1.1,1,2,2.1,2.1c0.4,0,0.9-0.1,1.3-0.2L114.8,49.2z"/>
		<path class="st18" d="M117.4,42.5v2.7h2.6v-2.7h1.6v6.9H120v-2.9h-2.6v2.9h-1.6v-6.9H117.4z"/>
		<path class="st18" d="M128.7,40l-1.4,1.2h-0.8l0.8-1.2H128.7z M126.3,46.5l-0.4-1.5c-0.1-0.4-0.2-0.9-0.3-1.3l0,0
			c-0.1,0.4-0.2,0.9-0.3,1.3l-0.4,1.5L126.3,46.5z M126.2,40.8l0.9,1.3h-1l-0.5-0.7l0,0l-0.5,0.7h-1l0.9-1.3H126.2z M124.6,47.6
			l-0.5,1.8h-1.6l2.1-6.9h2.1l2.1,6.9h-1.7l-0.5-1.8L124.6,47.6z"/>
		<path class="st18" d="M130.2,43.8h-1.9v-1.3h5.3v1.3h-1.9v5.6h-1.6L130.2,43.8z"/>
		<path class="st18" d="M136.5,42.5h1.6v5.6h2.8v1.3h-4.3V42.5z"/>
		<path class="st18" d="M148.2,41.2c0.2,0.3,0.2,0.7,0.2,1c0,0.6-0.4,1.1-1,1.1h-0.3v3c0,2.1-1.1,3.2-2.9,3.2s-2.8-1-2.8-3.2v-3.8
			h1.5v4c0,1.2,0.4,1.8,1.2,1.8s1.3-0.6,1.3-1.8v-4h1.2c0.4,0,0.5-0.1,0.5-0.4c0-0.2-0.1-0.5-0.2-0.7L148.2,41.2z"/>
		<path class="st18" d="M151.2,50.9c0-0.4,0.3-0.7,0.7-0.7l0,0l0,0c0.4,0,0.7,0.3,0.7,0.7c0,0,0,0,0,0l0,0c0,0.4-0.3,0.7-0.7,0.7
			C151.6,51.6,151.3,51.3,151.2,50.9z M153.6,45.9c0-1.2-0.6-2.3-1.7-2.3s-1.7,1-1.7,2.3s0.6,2.3,1.7,2.3S153.6,47.3,153.6,45.9
			L153.6,45.9z M155.5,41.6c0.2,0.3,0.2,0.7,0.2,1c0.1,0.5-0.3,1-0.9,1.1c-0.1,0-0.1,0-0.2,0c0.4,0.6,0.6,1.4,0.6,2.1
			c0,2.3-1.4,3.7-3.4,3.7c-1.8,0-3.2-1.4-3.3-3.2c0-0.1,0-0.2,0-0.3c-0.2-1.8,1.2-3.4,3-3.6h0.4c0.4,0,0.9,0.1,1.3,0.2
			c0.3,0.2,0.7,0.3,1,0.4c0.3,0,0.4-0.1,0.4-0.4c0-0.3-0.1-0.5-0.2-0.8L155.5,41.6z"/>
		<path class="st18" d="M156.3,49.4v-6.9h1.8l1.4,2.5c0.4,0.8,0.8,1.6,1.1,2.4l0,0c-0.1-1-0.1-1.9-0.1-2.9v-2h1.4v6.9h-1.6l-1.5-2.7
			c-0.4-0.8-0.8-1.6-1.2-2.5l0,0c0,0.9,0.1,1.9,0.1,3v2.1H156.3z"/>
		<path class="st18" d="M169.2,49.1c-0.7,0.2-1.5,0.4-2.3,0.4c-1,0.1-2-0.3-2.8-0.9c-0.7-0.7-1.1-1.6-1-2.5c0-2.3,1.7-3.6,4-3.6
			c0.7,0,1.3,0.1,1.9,0.3l-0.3,1.3c-0.5-0.2-1.1-0.3-1.6-0.3c-1.2,0-2.2,1.1-2.2,2.3c0,1.1,0.9,2.1,2.1,2.2c0.3,0,0.5,0,0.8-0.1
			v-1.4h-1.1v-1.2h2.6V49.1z"/>
		<path class="st18" d="M172.5,42.5h1.5v5.6h2.8v1.3h-4.3L172.5,42.5z"/>
		<path class="st18" d="M181.1,46.5l-0.4-1.5c-0.1-0.4-0.2-0.9-0.4-1.3l0,0c-0.1,0.4-0.2,0.9-0.3,1.3l-0.4,1.5L181.1,46.5z
			 M180.3,40.8l0.9,1.2h-1.2l-1.3-1.2H180.3z M179.4,47.6l-0.5,1.8h-1.6l2.1-6.9h2.1l2.1,6.9h-1.7l-0.5-1.8L179.4,47.6z"/>
		<path class="st18" d="M188.1,48.2c0.2,0,0.4,0,0.5,0c1.2,0.1,2.2-0.8,2.3-2c0,0,0,0,0,0c0-0.1,0-0.3,0-0.4
			c0.1-1.1-0.7-2.1-1.8-2.2c0,0,0,0,0,0c-0.1,0-0.3,0-0.4,0c-0.2,0-0.5,0-0.7,0.1L188.1,48.2z M186.6,42.6c0.7-0.1,1.4-0.2,2.1-0.2
			c1-0.1,2,0.2,2.8,0.7c0.8,0.6,1.2,1.6,1.2,2.6c0.1,1.1-0.4,2.1-1.1,2.8c-0.9,0.7-2.1,1-3.2,0.9c-0.6,0-1.2,0-1.8-0.1V42.6z"/>
		<path class="st18" d="M196.9,46.5l-0.4-1.5c-0.1-0.4-0.2-0.9-0.4-1.3l0,0c-0.1,0.4-0.2,0.9-0.3,1.3l-0.4,1.5L196.9,46.5z
			 M195.2,47.6l-0.5,1.8h-1.6l2.1-6.9h2.1l2.1,6.9h-1.7l-0.5-1.8L195.2,47.6z"/>
		<path class="st18" d="M200.3,49.4v-6.9h1.8l1.4,2.5c0.4,0.8,0.8,1.6,1.1,2.4l0,0c-0.1-1-0.1-1.9-0.1-2.9v-2h1.4v6.9h-1.6l-1.5-2.7
			c-0.4-0.8-0.8-1.6-1.2-2.5l0,0c0,0.9,0.1,1.9,0.1,3v2.1H200.3z"/>
		<path class="st18" d="M209,42.5v2.7h2.6v-2.7h1.6v6.9h-1.6v-2.9H209v2.9h-1.6v-6.9H209z"/>
		<path class="st18" d="M218.1,48.2c0.2,0,0.4,0,0.5,0c1.2,0.1,2.2-0.7,2.4-1.9c0.1-1.2-0.6-2.3-1.8-2.7c-0.1,0-0.3,0-0.4,0
			c-0.2,0-0.5,0-0.7,0.1L218.1,48.2z M216.5,42.6c0.7-0.1,1.4-0.2,2.1-0.2c1-0.1,2,0.2,2.8,0.7c0.8,0.6,1.2,1.6,1.2,2.6
			c0.1,1.1-0.4,2.1-1.1,2.8c-0.9,0.7-2.1,1-3.2,0.9c-0.6,0-1.2,0-1.8-0.1V42.6z"/>
		<path class="st18" d="M225.8,50.9c0-0.4,0.3-0.7,0.7-0.7l0,0l0,0c0.4,0,0.7,0.3,0.7,0.7l0,0l0,0c0,0.4-0.4,0.7-0.8,0.6
			C226.1,51.5,225.9,51.2,225.8,50.9L225.8,50.9z M230.4,41.2c0.1,0.3,0.2,0.7,0.2,1c0,0.6-0.4,1.1-1,1.1h-0.2v3
			c0,2.1-1.1,3.2-2.9,3.2s-2.8-1-2.8-3.2v-3.8h1.6v4c0,1.2,0.4,1.8,1.2,1.8s1.3-0.6,1.3-1.8v-4h1.2c0.4,0,0.5-0.1,0.5-0.4
			c0-0.2-0.1-0.5-0.2-0.7L230.4,41.2z"/>
	</g>
</g>
<g>
	<g>
		<path class="st19" d="M100.3,43.9H79.2c-1.7,0-3-1.3-3-3V19.7c0-1.7,1.3-3,3-3h21.2c1.7,0,3,1.3,3,3v21.2
			C103.3,42.5,102,43.9,100.3,43.9z"/>
	</g>
	<g>
		<g>
			<path class="st20" d="M87.2,25.1c2.1,0,3.2-0.9,3.2-2.7v-0.1c0-1.7-1-2.6-3-2.6h-3c-0.7,0-1.4,0.6-1.4,1.4v2.7
				c0,0.7,0.6,1.4,1.4,1.4H87.2z"/>
		</g>
		<g>
			<path class="st20" d="M93.9,31v0.1c0,0.4-0.1,0.9-0.2,1.2c-0.5,1.6-1.8,2.4-4,2.4h-5.4c-0.7,0-1.4-0.6-1.4-1.4v-4.7
				c0-0.7,0.6-1.4,1.4-1.4h5.3C92.5,27.4,93.9,28.8,93.9,31z"/>
		</g>
		<g>
			<path class="st20" d="M96.8,33.5c-0.3,0-0.5,0.2-0.6,0.4c-0.9,2.1-3.1,3.3-6.5,3.3H79.2c-0.4,0-0.7,0.3-0.7,0.7v0
				c0,1.7,1.3,3,3,3h13.4c1.1,0,2.2-0.6,2.8-1.5l3.2-4.8c0.3-0.5,0-1.1-0.6-1.1H96.8z"/>
		</g>
	</g>
	<g>
		<path class="st21" d="M110,16.4h10.7c2.6,0,4.5,0.7,5.7,1.9c0.8,0.8,1.3,1.9,1.3,3.4v0.1c0,2.4-1.3,3.8-3.2,4.6
			c2.5,0.8,4.1,2.3,4.1,5.1v0.1c0,3.6-2.9,5.7-7.9,5.7H110V16.4z M119.3,24.7c1.8,0,2.7-0.6,2.7-1.8v-0.1c0-1.2-0.9-1.8-2.6-1.8
			h-3.7v3.7H119.3z M120.1,32.5c1.8,0,2.8-0.7,2.8-1.9v-0.1c0-1.2-0.9-1.9-2.8-1.9h-4.4v3.8H120.1z"/>
		<path class="st21" d="M130.3,29.2L130.3,29.2c0-4.7,3.8-8.5,8.9-8.5c5.1,0,8.9,3.8,8.9,8.4v0.1c0,4.6-3.8,8.4-8.9,8.4
			C134,37.6,130.3,33.8,130.3,29.2z M142.6,29.2L142.6,29.2c0-2-1.4-3.7-3.4-3.7c-2.1,0-3.4,1.6-3.4,3.6v0.1c0,2,1.4,3.6,3.4,3.6
			C141.3,32.8,142.6,31.1,142.6,29.2z"/>
		<path class="st21" d="M149.7,32.6L149.7,32.6c0-3.4,2.5-5.1,6.3-5.1c1.5,0,2.9,0.3,3.9,0.6v-0.3c0-1.7-1-2.6-3.2-2.6
			c-1.7,0-3,0.3-4.4,0.9l-1.2-4c1.8-0.7,3.7-1.2,6.5-1.2c2.9,0,4.8,0.7,6.1,2c1.2,1.2,1.7,2.9,1.7,5.1v9.3h-5.6v-1.7
			c-1.1,1.2-2.6,2-4.7,2C152,37.5,149.7,35.8,149.7,32.6z M159.9,31.3v-0.7c-0.6-0.2-1.4-0.4-2.2-0.4c-1.7,0-2.6,0.8-2.6,2v0.1
			c0,1.1,0.8,1.8,2,1.8C158.8,34,159.9,33,159.9,31.3z"/>
		<path class="st21" d="M169.1,32.2v-6.5h-1.9v-4.6h1.9V17h5.7v4.1h3.7v4.6h-3.7v5.4c0,1.2,0.5,1.6,1.5,1.6c0.7,0,1.5-0.2,2.1-0.5
			v4.4c-1,0.6-2.4,0.9-3.9,0.9C171.1,37.5,169.1,36,169.1,32.2z"/>
		<path class="st21" d="M181,15.5h5.9v4.2H181V15.5z M181.1,21.1h5.7v16.1h-5.7V21.1z"/>
		<path class="st21" d="M190.9,25.6H189v-4.4h1.9v-0.4c0-1.9,0.4-3.2,1.4-4.2c1-1,2.3-1.4,4.2-1.4c1.8,0,2.8,0.2,3.7,0.4v4
			c-0.7-0.2-1.3-0.3-2.1-0.3c-1.1,0-1.6,0.5-1.6,1.5v0.4h3.7v4.3h-3.6v11.6h-5.6V25.6z"/>
		<path class="st21" d="M201.5,40.6l1.8-4c0.9,0.6,1.8,0.9,2.5,0.9c0.6,0,1-0.1,1.3-0.7l-6.3-15.8h5.9l3.2,9.7l3-9.7h5.8l-5.9,15.7
			c-1.4,3.7-2.9,5.2-6.1,5.2C204.6,42,203,41.5,201.5,40.6z"/>
	</g>
	<g>
		<path class="st19" d="M110.5,40.8h1.3c0.8,0,1.3,0.4,1.3,1.1v0c0,0.7-0.6,1.1-1.4,1.1h-0.8v1.2h-0.4V40.8z M111.7,42.7
			c0.6,0,0.9-0.3,0.9-0.8v0c0-0.5-0.4-0.7-0.9-0.7h-0.9v1.5H111.7z"/>
		<path class="st19" d="M113.7,40.7h0.4v3.6h-0.4V40.7z"/>
		<path class="st19" d="M114.8,43.5L114.8,43.5c0-0.6,0.4-0.8,1.1-0.8c0.3,0,0.5,0,0.8,0.1v-0.1c0-0.5-0.3-0.7-0.8-0.7
			c-0.3,0-0.5,0.1-0.8,0.2l-0.1-0.3c0.3-0.1,0.6-0.2,0.9-0.2c0.4,0,0.6,0.1,0.8,0.3c0.2,0.2,0.3,0.4,0.3,0.7v1.6h-0.4v-0.4
			c-0.2,0.2-0.5,0.4-0.9,0.4C115.3,44.3,114.8,44.1,114.8,43.5z M116.7,43.3v-0.2c-0.2-0.1-0.4-0.1-0.7-0.1c-0.5,0-0.7,0.2-0.7,0.5
			v0c0,0.3,0.3,0.5,0.6,0.5C116.3,44,116.7,43.7,116.7,43.3z"/>
		<path class="st19" d="M117.8,41.7h0.4v0.4c0.2-0.3,0.4-0.5,0.9-0.5c0.6,0,1,0.4,1,1v1.6h-0.4v-1.5c0-0.5-0.3-0.8-0.7-0.8
			c-0.4,0-0.8,0.3-0.8,0.8v1.5h-0.4V41.7z"/>
		<path class="st19" d="M120.7,44.7c0.3-0.1,0.3-0.2,0.3-0.4h-0.2v-0.5h0.5v0.4c0,0.4-0.2,0.6-0.5,0.7L120.7,44.7z"/>
		<path class="st19" d="M123.9,43.8v0.5h-0.4v-3.6h0.4v1.6c0.2-0.3,0.5-0.6,1-0.6c0.6,0,1.2,0.5,1.2,1.3v0c0,0.8-0.6,1.3-1.2,1.3
			C124.4,44.3,124.1,44.1,123.9,43.8z M125.7,43L125.7,43c0-0.6-0.4-1-0.9-1c-0.5,0-0.9,0.4-0.9,1v0c0,0.6,0.4,1,0.9,1
			C125.3,44,125.7,43.6,125.7,43z"/>
		<path class="st19" d="M126.7,43L126.7,43c0-0.7,0.6-1.3,1.3-1.3c0.8,0,1.3,0.6,1.3,1.3v0c0,0.7-0.6,1.3-1.3,1.3
			C127.2,44.3,126.7,43.7,126.7,43z M128.9,43L128.9,43c0-0.6-0.4-1-0.9-1c-0.6,0-0.9,0.4-0.9,1v0c0,0.5,0.4,1,0.9,1
			C128.5,44,128.9,43.5,128.9,43z"/>
		<path class="st19" d="M129.8,43L129.8,43c0-0.7,0.6-1.3,1.3-1.3c0.8,0,1.3,0.6,1.3,1.3v0c0,0.7-0.6,1.3-1.3,1.3
			C130.4,44.3,129.8,43.7,129.8,43z M132.1,43L132.1,43c0-0.6-0.4-1-0.9-1c-0.6,0-0.9,0.4-0.9,1v0c0,0.5,0.4,1,0.9,1
			C131.7,44,132.1,43.5,132.1,43z"/>
		<path class="st19" d="M133.2,40.7h0.4v2.5l1.4-1.4h0.5l-1.1,1.1l1.1,1.5H135l-0.9-1.2l-0.5,0.5v0.7h-0.4V40.7z"/>
		<path class="st19" d="M135.8,44.7c0.3-0.1,0.3-0.2,0.3-0.4h-0.2v-0.5h0.5v0.4c0,0.4-0.2,0.6-0.5,0.7L135.8,44.7z"/>
		<path class="st19" d="M138.5,43.5L138.5,43.5c0-0.6,0.4-0.8,1.1-0.8c0.3,0,0.5,0,0.8,0.1v-0.1c0-0.5-0.3-0.7-0.8-0.7
			c-0.3,0-0.5,0.1-0.8,0.2l-0.1-0.3c0.3-0.1,0.6-0.2,0.9-0.2c0.4,0,0.6,0.1,0.8,0.3c0.2,0.2,0.3,0.4,0.3,0.7v1.6h-0.4v-0.4
			c-0.2,0.2-0.5,0.4-0.9,0.4C139,44.3,138.5,44.1,138.5,43.5z M140.3,43.3v-0.2c-0.2-0.1-0.4-0.1-0.7-0.1c-0.5,0-0.7,0.2-0.7,0.5v0
			c0,0.3,0.3,0.5,0.6,0.5C140,44,140.3,43.7,140.3,43.3z"/>
		<path class="st19" d="M141.5,41.7h0.4v0.4c0.2-0.3,0.4-0.5,0.9-0.5c0.6,0,1,0.4,1,1v1.6h-0.4v-1.5c0-0.5-0.3-0.8-0.7-0.8
			c-0.4,0-0.8,0.3-0.8,0.8v1.5h-0.4V41.7z"/>
		<path class="st19" d="M144.4,43L144.4,43c0-0.8,0.6-1.3,1.2-1.3c0.5,0,0.8,0.3,1,0.5v-1.5h0.4v3.6h-0.4v-0.5
			c-0.2,0.3-0.5,0.6-1,0.6C145,44.3,144.4,43.8,144.4,43z M146.6,43L146.6,43c0-0.6-0.4-1-0.9-1c-0.5,0-0.9,0.4-0.9,1v0
			c0,0.6,0.4,1,0.9,1C146.2,44,146.6,43.6,146.6,43z"/>
		<path class="st19" d="M149.4,42.1h-0.3v-0.3h0.3v-0.2c0-0.3,0.1-0.5,0.2-0.7c0.1-0.1,0.3-0.2,0.5-0.2c0.2,0,0.3,0,0.4,0.1v0.3
			c-0.1,0-0.2-0.1-0.4-0.1c-0.3,0-0.4,0.2-0.4,0.5v0.2h0.8v0.3h-0.8v2.2h-0.4V42.1z"/>
		<path class="st19" d="M151.1,40.7h0.4v3.6h-0.4V40.7z"/>
		<path class="st19" d="M152.3,45l0.1-0.3c0.1,0.1,0.2,0.1,0.4,0.1c0.2,0,0.4-0.1,0.5-0.5l-1.2-2.5h0.4l0.9,2.1l0.8-2.1h0.4
			l-1.1,2.6c-0.2,0.5-0.5,0.7-0.8,0.7C152.6,45.1,152.4,45,152.3,45z"/>
		<path class="st19" d="M156.7,42.6h2V43h-2V42.6z"/>
		<path class="st19" d="M160.7,43.5L160.7,43.5c0-0.6,0.4-0.8,1.1-0.8c0.3,0,0.5,0,0.8,0.1v-0.1c0-0.5-0.3-0.7-0.8-0.7
			c-0.3,0-0.5,0.1-0.8,0.2l-0.1-0.3c0.3-0.1,0.6-0.2,0.9-0.2c0.4,0,0.6,0.1,0.8,0.3c0.2,0.2,0.3,0.4,0.3,0.7v1.6h-0.4v-0.4
			c-0.2,0.2-0.5,0.4-0.9,0.4C161.2,44.3,160.7,44.1,160.7,43.5z M162.5,43.3v-0.2c-0.2-0.1-0.4-0.1-0.7-0.1c-0.5,0-0.7,0.2-0.7,0.5
			v0c0,0.3,0.3,0.5,0.6,0.5C162.2,44,162.5,43.7,162.5,43.3z"/>
		<path class="st19" d="M163.8,40.7h0.4v3.6h-0.4V40.7z"/>
		<path class="st19" d="M165,40.7h0.4v3.6H165V40.7z"/>
		<path class="st19" d="M167.6,41.7h0.4l0.7,2l0.7-2.1h0.3l0.7,2.1l0.7-2h0.4l-0.9,2.6h-0.3l-0.7-2l-0.7,2h-0.3L167.6,41.7z"/>
		<path class="st19" d="M172,40.8h0.4v0.4H172V40.8z M172.1,41.7h0.4v2.5h-0.4V41.7z"/>
		<path class="st19" d="M173.5,43.6v-1.5h-0.4v-0.3h0.4V41h0.4v0.8h0.8v0.3h-0.8v1.5c0,0.3,0.2,0.4,0.4,0.4c0.1,0,0.2,0,0.4-0.1v0.3
			c-0.1,0.1-0.3,0.1-0.5,0.1C173.8,44.3,173.5,44.1,173.5,43.6z"/>
		<path class="st19" d="M175.3,40.7h0.4v1.5c0.2-0.3,0.4-0.5,0.9-0.5c0.6,0,1,0.4,1,1v1.6h-0.4v-1.5c0-0.5-0.3-0.8-0.7-0.8
			c-0.4,0-0.8,0.3-0.8,0.8v1.5h-0.4V40.7z"/>
		<path class="st19" d="M179.9,40.8h1.5c0.4,0,0.7,0.1,0.9,0.3c0.1,0.2,0.2,0.3,0.2,0.6v0c0,0.4-0.3,0.7-0.5,0.8
			c0.4,0.1,0.7,0.4,0.7,0.8v0c0,0.6-0.5,0.9-1.3,0.9h-1.5V40.8z M181.3,42.4c0.5,0,0.8-0.2,0.8-0.6v0c0-0.3-0.3-0.6-0.8-0.6h-1v1.2
			H181.3z M181.4,43.9c0.5,0,0.8-0.2,0.8-0.6v0c0-0.4-0.3-0.6-0.9-0.6h-1.1v1.2H181.4z"/>
		<path class="st19" d="M183.2,43L183.2,43c0-0.7,0.6-1.3,1.3-1.3c0.8,0,1.3,0.6,1.3,1.3v0c0,0.7-0.6,1.3-1.3,1.3
			C183.8,44.3,183.2,43.7,183.2,43z M185.5,43L185.5,43c0-0.6-0.4-1-0.9-1c-0.6,0-0.9,0.4-0.9,1v0c0,0.5,0.4,1,0.9,1
			C185.1,44,185.5,43.5,185.5,43z"/>
		<path class="st19" d="M186.4,43.5L186.4,43.5c0-0.6,0.4-0.8,1.1-0.8c0.3,0,0.5,0,0.8,0.1v-0.1c0-0.5-0.3-0.7-0.8-0.7
			c-0.3,0-0.5,0.1-0.8,0.2l-0.1-0.3c0.3-0.1,0.6-0.2,0.9-0.2c0.4,0,0.6,0.1,0.8,0.3c0.2,0.2,0.3,0.4,0.3,0.7v1.6h-0.4v-0.4
			c-0.2,0.2-0.5,0.4-0.9,0.4C186.8,44.3,186.4,44.1,186.4,43.5z M188.2,43.3v-0.2c-0.2-0.1-0.4-0.1-0.7-0.1c-0.5,0-0.7,0.2-0.7,0.5
			v0c0,0.3,0.3,0.5,0.6,0.5C187.9,44,188.2,43.7,188.2,43.3z"/>
		<path class="st19" d="M189.5,43.6v-1.5h-0.4v-0.3h0.4V41h0.4v0.8h0.8v0.3h-0.8v1.5c0,0.3,0.2,0.4,0.4,0.4c0.1,0,0.2,0,0.4-0.1v0.3
			c-0.1,0.1-0.3,0.1-0.5,0.1C189.8,44.3,189.5,44.1,189.5,43.6z"/>
		<path class="st19" d="M191.4,40.8h0.4v0.4h-0.4V40.8z M191.4,41.7h0.4v2.5h-0.4V41.7z"/>
		<path class="st19" d="M192.8,42.1h-0.3v-0.3h0.3v-0.2c0-0.3,0.1-0.5,0.2-0.7c0.1-0.1,0.3-0.2,0.5-0.2c0.2,0,0.3,0,0.4,0.1v0.3
			c-0.1,0-0.2-0.1-0.4-0.1c-0.3,0-0.4,0.2-0.4,0.5v0.2h0.8v0.3h-0.8v2.2h-0.4V42.1z"/>
		<path class="st19" d="M194.3,45l0.1-0.3c0.1,0.1,0.2,0.1,0.4,0.1c0.2,0,0.4-0.1,0.5-0.5l-1.2-2.5h0.4l0.9,2.1l0.8-2.1h0.4
			l-1.1,2.6c-0.2,0.5-0.5,0.7-0.8,0.7C194.7,45.1,194.5,45,194.3,45z"/>
	</g>
</g>
</svg>
